<?xml version="1.0" encoding="utf-8"?>
<!-- Generator: Adobe Illustrator 25.2.0, SVG Export Plug-In . SVG Version: 6.00 Build 0)  -->
<svg version="1.1" id="Layer_1" xmlns="http://www.w3.org/2000/svg" xmlns:xlink="http://www.w3.org/1999/xlink" x="0px" y="0px"
	 viewBox="0 0 254.4 88.7" style="enable-background:new 0 0 254.4 88.7;" xml:space="preserve">
<style type="text/css">
	.st0{fill:#FFFFFF;}
	.st1{fill-rule:evenodd;clip-rule:evenodd;fill:#FFFFFF;}
</style>
<g>
	<path class="st0" d="M77.4,84.6V4.5c0-0.7-0.5-1.2-1.2-1.2S75,3.8,75,4.5v80.1c0,0.7,0.5,1.2,1.2,1.2S77.4,85.2,77.4,84.6"/>
	<path class="st1" d="M29.4,30.4l-0.9,7.1c0,0,1.7-0.2,3.2,0.3c1.7,0.5,3.2,1.6,3.2,1.6c0.7,0.3,1.1-0.3,1.4-0.8
		c0,0,1.5-3.2-0.7-5.9C33.5,29.9,29.4,30.4,29.4,30.4"/>
	<path class="st0" d="M18,28c0,0.1,0,0.2,0,0.4c0,0.2,0,0.4,0.1,0.7c0,0.3,0.1,0.5,0.1,0.8c0,0,0,0.1,0,0.1
		c-0.4,0.3-0.7,0.7-0.8,1.1c-0.1,0.3-0.1,0.6-0.2,0.9c-0.1,0.2-0.1,0.5-0.2,0.7c-0.2,0.6-0.5,1.1-0.9,1.5c-0.3,0.3-0.6,0.5-1,0.7
		c-0.1,0-0.1,0,0,0.1c0.1,0.3,0.3,0.7,0.4,1c0.1,0.4,0.2,0.7,0.2,1.1c0.1,0.8,0.2,1.6,0.1,2.5c-0.1,0.5-0.2,0.9-0.4,1.4
		c-0.4,0.7-0.9,1.2-1.6,1.5c-0.1,0.1-0.3,0.1-0.4,0.1c-0.3,0.1-0.6,0.1-0.8,0c-0.5-0.1-0.9-0.3-1.2-0.6c-0.3-0.3-0.5-0.6-0.7-0.9
		c-0.2-0.4-0.3-0.7-0.4-1.1c-0.1-0.3-0.2-0.6-0.2-0.9c-0.1-0.4-0.1-0.8-0.1-1.3c0-0.2,0-0.5,0-0.7c0-0.1,0-0.2,0.1-0.4
		c0,0,0-0.1,0.1-0.1c0.1-0.1,0.3-0.1,0.3,0c0,0,0,0.1,0,0.1c0,0.1,0,0.2,0,0.3c0,0.4,0.1,0.7,0.1,1.1c0.1,0.5,0.2,0.9,0.5,1.4
		c0.1,0.2,0.2,0.4,0.4,0.5c0.2,0.2,0.5,0.3,0.8,0.4c0.3,0,0.5,0,0.8-0.1c0.5-0.1,1-0.5,1.3-0.9c0.4-0.5,0.6-1.1,0.6-1.7
		c0-0.3,0-0.6-0.1-0.9c-0.1-0.3-0.2-0.7-0.3-1c-0.2-0.5-0.4-1-0.7-1.5c-0.1-0.1-0.1-0.3-0.1-0.4c0-0.3,0.1-0.4,0.3-0.6
		c0.1,0,0.1,0,0.2-0.1c0.8-0.3,1.3-0.8,1.7-1.5c0.2-0.4,0.4-0.8,0.5-1.2c0.1-0.4,0.3-0.8,0.4-1.1c0.2-0.4,0.4-0.8,0.8-1.1
		C17.7,28.1,17.8,28,18,28"/>
	<path class="st1" d="M41.1,2.4c0,0,0.9-0.7,1.9-0.7c0.9,0,1.8,0.6,1.8,0.6s5.1,2.5,6.6,8.9c1.1,4.7-1.9,10.7-1.9,10.7
		c6.8,7.1,12.9,10.4,15.7,20.2c0,0,2.7,8.8,1.6,16.6c-1.3,13.4-6.7,19.5-21,25c7.9-7.1,15.2-15.2,17.8-24.5c0,0,1.3-3.6,1.1-6.9
		c-0.2-3.5-1.9-6.9-1.9-6.9s-1.8-3.9-6-8.5c-4.5-5-8-7.5-12-12.3c-3.2-3.9-4.9-6.5-4.9-6.5s-1.8-2.5-2.2-5.4
		c-0.3-2.5,0.7-5.6,0.7-5.6s0.5-1.7,1.1-2.7C40.1,3.1,41.1,2.4,41.1,2.4 M39.6,4.8c0,0-0.4,2.7,1.8,6.3c0.9,1.5,2.4,3.9,3.6,5.4
		c2.2,2.7,3.9,4.3,3.9,4.3s0.7-2.5,0-5.2c-0.6-2.5-2.7-5.3-2.7-5.3s-1.7-1.9-3.2-3.3C41.3,5.7,39.6,4.8,39.6,4.8"/>
	<path class="st1" d="M58.2,48.3c-1.1-2.9-3.1-5.4-4.6-7.2c-4-4.7-8.6-8.8-12.7-13.5c-2.3-2.6-5.1-6.1-6.2-9.6
		c-0.9-2.9-1.3-6.7-0.9-9c-2.5,2-3.1,8.6-1.8,13c3,10.1,16.7,18.3,22.6,29.2c1.2,2.2,2.1,4.6,2.7,6.3c0.4,1.3-0.2,2.8-1.5,3.3
		c-1,0.4-2.3,0.8-3.6,0.8c-3.4-0.1-4-3.7-4-3.7l-2.3,5.9c0,0,1.2,1.6,2.3,3.3c1.8,2.7,0.4,4,0.4,4C43.1,77,36.7,81.6,28.3,81.7
		c0,0-5.6,0.1-7.8-3.9c-0.6-1.1-1-2.2-1.3-3.3c-0.3-1.3-0.4-3.7-0.1-5.5c0.2-1.8,0.7-3.1,0.7-3.1c0.9-2.9,1.4-5.2,0.1-2.7
		c-1.2,2.5-2,4.9-2.5,7.3c-0.3,1.2-0.6,4.3-0.5,6.1c0.9,19.4,24.8,9,31.4-0.2c0,0,0.8-0.9,1.4-2.2c0.9-1.7,1.5-3.7,1.6-6.1
		c0,0,4.1-0.6,6-2.9C60.8,61,60,53.1,58.2,48.3"/>
	<path class="st1" d="M5.3,56.8c0.3,0.5,0.7,1,0.7,1c0.5,0.6,1.3,1.5,2.2,1.7c2.1,0.5,3.1-0.9,3.1-0.9s1.7-1.8,2.5-4.7
		c0.4-1.5,0.9-4.2,1-5.6c0.3-2.6-0.8-0.7-0.8-0.7l-0.7,2.5c0,0-0.7,2.1-1.6,2.7c-0.8,0.6-1.9-0.2-1.9-0.2s-1.5-1-2.9-3.9
		c-1.1-2.4-1-5.5-1-5.5S6,38,9,33.1c2.1-3.6,4.7-7.2,7.4-10.1c3.1-3.3,6.4-5.9,6.4-5.9c-1,16-2.2,33-11.4,46.6
		c-1.4,2.1-2.4,3.5-3.3,4.4c-1,1.1,0.1,0.5,0.1,0.5s8.5-5.5,13.9-18.2c4.4-10.4,3.9-22.8,5.4-33.9c0,0,0.3-2.6,0.9-4.7
		c0.6-2,1.9-3.7,1.9-3.7s-1.1,0.5-2,1.2c-1.1,0.8-2.5,2-2.5,2s-8.7,7.4-14.6,15.2c-5.5,7.2-8.6,13.7-8,22.7
		C3.6,53,4.9,55.8,5.3,56.8"/>
	<path class="st1" d="M48.3,48.2c-0.9-2.4-3.6-3.3-3.6-3.3s-2-0.8-5.3-1.3c-1.5-0.2-3.6-0.6-5-1c-3.5-1.1-5.8-3-5.8-3
		c0,1.4-0.1,5.5,1.6,6.1c0,0-2.5,4.3-1.8,8.6c0.4,2.5,1.6,3.2,2.2,3.4c-0.4,0.9-6.1,13.8-13.7,14.2l-0.1,0c-0.4,0-0.9,0.1-1.3,0.1
		c0,0-5.6,0.1-7.8-3.9c-0.6-1.1-1-2.2-1.3-3.3c-0.3-1.3-0.4-3.7-0.1-5.5c0.2-1.8,0.7-3.1,0.7-3.1c0.9-2.9,1.4-5.2,0.1-2.7
		c-1.2,2.5-2,4.9-2.5,7.3C4,62,3.7,65,3.8,66.9c0.5,10.6,8.4,12.5,15.4,10.2l0.1,0c5.7-2.3,8.9-9.4,9.5-10.7
		c0.6-1.5,1.8-3.9,4.1-5.8c1.2-1,3.2-1.8,4.9-2.4c1.2-0.4,2.4-0.6,3.6-0.6c3.1,0,6.8,0,7.4-3.1C48.8,54.5,49.3,50.9,48.3,48.2
		 M30.3,50c0.5-1.3,2.6-2.8,4.1-2.8c0.7,0,1.3,0.4,1.3,0.4c0.8,0.4,1.4,1,1.8,1.7c0.5,0.8,0.5,1.8,0,2.6c-0.2,0.3-0.4,0.6-0.7,0.9
		c0,0-2.1,0.3-3.7,0.3C31.4,53,29.4,52.2,30.3,50 M45.8,52.1c-0.9,0.1-2,0.2-3,0.2c-1.5,0-3.2,0.2-3.2,0.2s0.3-1.4,0.2-2.4
		c0-1-0.2-2-0.2-2s1,0.3,2.4,0.6c1,0.2,2.3,0.4,3.2,0.7c1.9,0.7,2.4,1.6,2.4,1.6S47.4,51.9,45.8,52.1"/>
	<polygon class="st0" points="107.3,3.5 107.3,6.2 99.5,6.2 99.5,27.5 96.3,27.5 96.3,6.2 88.5,6.2 88.5,3.5 	"/>
	<path class="st0" d="M110.2,27.5V2.8h3v10c0.7-0.8,1.5-1.4,2.4-1.9c0.9-0.5,1.9-0.7,3-0.7c0.9,0,1.7,0.2,2.5,0.5
		c0.7,0.3,1.3,0.7,1.8,1.3c0.5,0.6,0.8,1.2,1.1,2c0.2,0.8,0.4,1.7,0.4,2.6v10.8h-3V16.7c0-1.3-0.3-2.3-0.9-3
		c-0.6-0.7-1.5-1.1-2.7-1.1c-0.9,0-1.7,0.2-2.5,0.6c-0.8,0.4-1.5,1-2.1,1.7v12.5H110.2z"/>
	<path class="st0" d="M135.6,10.3c1,0,2,0.2,2.8,0.5c0.9,0.3,1.6,0.8,2.2,1.5c0.6,0.6,1.1,1.4,1.5,2.4c0.4,0.9,0.5,2,0.5,3.2
		c0,0.5-0.1,0.8-0.2,0.9c-0.1,0.2-0.3,0.2-0.6,0.2h-11.3c0,1.1,0.2,2,0.4,2.8c0.3,0.8,0.6,1.5,1.1,2c0.5,0.5,1,0.9,1.7,1.2
		c0.6,0.3,1.4,0.4,2.2,0.4c0.7,0,1.4-0.1,1.9-0.3c0.5-0.2,1-0.4,1.4-0.6c0.4-0.2,0.7-0.4,1-0.6c0.3-0.2,0.5-0.3,0.7-0.3
		c0.2,0,0.4,0.1,0.6,0.3l0.8,1.1c-0.4,0.4-0.8,0.8-1.3,1.2c-0.5,0.3-1.1,0.6-1.7,0.8c-0.6,0.2-1.2,0.4-1.8,0.5
		c-0.6,0.1-1.2,0.2-1.9,0.2c-1.2,0-2.3-0.2-3.2-0.6c-1-0.4-1.8-1-2.6-1.7c-0.7-0.8-1.3-1.7-1.7-2.8c-0.4-1.1-0.6-2.4-0.6-3.9
		c0-1.2,0.2-2.3,0.5-3.3c0.4-1,0.9-1.9,1.6-2.7c0.7-0.8,1.5-1.3,2.5-1.8C133.3,10.5,134.4,10.3,135.6,10.3 M135.7,12.5
		c-1.4,0-2.6,0.4-3.4,1.2c-0.8,0.8-1.3,2-1.5,3.5h9.2c0-0.7-0.1-1.3-0.3-1.9c-0.2-0.6-0.5-1.1-0.8-1.5c-0.4-0.4-0.8-0.7-1.4-1
		C136.9,12.6,136.3,12.5,135.7,12.5"/>
	<polygon class="st0" points="107.3,59.4 107.3,62.1 99.5,62.1 99.5,83.4 96.3,83.4 96.3,62.1 88.5,62.1 88.5,59.4 	"/>
	<path class="st0" d="M112.3,83.4v-17h1.7c0.3,0,0.5,0.1,0.7,0.2c0.1,0.1,0.2,0.3,0.3,0.6l0.2,2.6c0.6-1.2,1.3-2.1,2.2-2.8
		c0.9-0.7,1.9-1,3-1c0.5,0,0.9,0.1,1.3,0.2c0.4,0.1,0.7,0.3,1.1,0.4l-0.4,2.2c-0.1,0.3-0.3,0.4-0.5,0.4c-0.2,0-0.4-0.1-0.7-0.2
		c-0.3-0.1-0.8-0.2-1.4-0.2c-1,0-1.9,0.3-2.6,0.9c-0.7,0.6-1.3,1.5-1.8,2.6v10.8H112.3z"/>
	<path class="st0" d="M131.6,66.4v10.8c0,1.3,0.3,2.3,0.9,3c0.6,0.7,1.5,1.1,2.7,1.1c0.9,0,1.7-0.2,2.5-0.6c0.8-0.4,1.5-1,2.1-1.7
		V66.4h3v17H141c-0.4,0-0.7-0.2-0.8-0.6l-0.2-1.8c-0.7,0.8-1.6,1.5-2.5,2c-0.9,0.5-2,0.7-3.2,0.7c-0.9,0-1.7-0.2-2.5-0.5
		c-0.7-0.3-1.3-0.7-1.8-1.3c-0.5-0.6-0.8-1.2-1.1-2c-0.2-0.8-0.4-1.7-0.4-2.6V66.4H131.6z"/>
	<path class="st0" d="M158.1,69.2c-0.1,0.2-0.3,0.4-0.6,0.4c-0.2,0-0.4-0.1-0.6-0.2c-0.2-0.1-0.5-0.3-0.8-0.4
		c-0.3-0.2-0.7-0.3-1.1-0.4c-0.4-0.1-0.9-0.2-1.5-0.2c-0.5,0-1,0.1-1.4,0.2c-0.4,0.1-0.7,0.3-1,0.5c-0.3,0.2-0.5,0.5-0.7,0.8
		c-0.2,0.3-0.2,0.6-0.2,1c0,0.4,0.1,0.8,0.4,1.1c0.3,0.3,0.6,0.5,1,0.8c0.4,0.2,0.9,0.4,1.4,0.6c0.5,0.2,1.1,0.3,1.6,0.5
		c0.6,0.2,1.1,0.4,1.6,0.6c0.5,0.2,1,0.5,1.4,0.8c0.4,0.3,0.7,0.7,1,1.2c0.3,0.5,0.4,1.1,0.4,1.7c0,0.8-0.1,1.5-0.4,2.2
		c-0.3,0.7-0.7,1.2-1.2,1.7c-0.5,0.5-1.2,0.9-2,1.1c-0.8,0.3-1.7,0.4-2.7,0.4c-1.2,0-2.3-0.2-3.2-0.6c-1-0.4-1.8-0.9-2.4-1.5
		l0.7-1.1c0.1-0.1,0.2-0.3,0.3-0.3c0.1-0.1,0.3-0.1,0.5-0.1c0.2,0,0.4,0.1,0.6,0.2c0.2,0.2,0.5,0.3,0.8,0.5c0.3,0.2,0.7,0.4,1.2,0.5
		c0.5,0.2,1,0.2,1.7,0.2c0.6,0,1.1-0.1,1.5-0.2c0.4-0.2,0.8-0.4,1.1-0.6c0.3-0.3,0.5-0.6,0.6-0.9c0.1-0.3,0.2-0.7,0.2-1.1
		c0-0.5-0.1-0.9-0.4-1.2c-0.3-0.3-0.6-0.6-1-0.8c-0.4-0.2-0.9-0.4-1.4-0.6c-0.5-0.2-1.1-0.3-1.6-0.5c-0.6-0.2-1.1-0.4-1.6-0.6
		c-0.5-0.2-1-0.5-1.4-0.9c-0.4-0.3-0.7-0.8-1-1.3c-0.3-0.5-0.4-1.1-0.4-1.9c0-0.6,0.1-1.3,0.4-1.9c0.3-0.6,0.7-1.1,1.2-1.6
		c0.5-0.5,1.1-0.8,1.9-1.1c0.7-0.3,1.6-0.4,2.6-0.4c1.1,0,2.1,0.2,3,0.5c0.9,0.4,1.7,0.8,2.3,1.4L158.1,69.2z"/>
	<path class="st0" d="M169.7,83.6c-1.3,0-2.4-0.4-3.1-1.1c-0.7-0.7-1.1-1.8-1.1-3.2V68.9h-2c-0.2,0-0.3-0.1-0.5-0.2
		c-0.1-0.1-0.2-0.3-0.2-0.5v-1.2l2.8-0.4l0.7-5.2c0-0.2,0.1-0.3,0.2-0.4c0.1-0.1,0.3-0.2,0.5-0.2h1.5v5.8h4.9v2.2h-4.9v10.2
		c0,0.7,0.2,1.2,0.5,1.6c0.3,0.3,0.8,0.5,1.3,0.5c0.3,0,0.6,0,0.8-0.1s0.4-0.2,0.6-0.3c0.2-0.1,0.3-0.2,0.4-0.3
		c0.1-0.1,0.2-0.1,0.3-0.1c0.2,0,0.3,0.1,0.4,0.3l0.9,1.4c-0.5,0.5-1.1,0.9-1.9,1.1C171.2,83.5,170.5,83.6,169.7,83.6"/>
	<path class="st0" d="M107.2,31.3v1.7c0,0.5-0.1,1-0.4,1.4L94.3,51.9h13v3.6H88.5v-1.8c0-0.2,0-0.4,0.1-0.6c0.1-0.2,0.2-0.4,0.3-0.6
		l12.5-17.6H88.5v-3.6H107.2z"/>
	<path class="st0" d="M124.3,55.5h-1.9c-0.4,0-0.7-0.1-0.9-0.2c-0.2-0.1-0.4-0.4-0.5-0.7l-0.4-1.2c-0.4,0.4-0.9,0.7-1.3,1
		c-0.4,0.3-0.9,0.5-1.3,0.7c-0.4,0.2-0.9,0.4-1.4,0.5c-0.5,0.1-1.1,0.2-1.7,0.2c-0.7,0-1.4-0.1-2-0.3c-0.6-0.2-1.1-0.5-1.6-0.9
		c-0.4-0.4-0.8-0.9-1-1.5c-0.2-0.6-0.4-1.3-0.4-2c0-0.6,0.2-1.3,0.5-1.9c0.3-0.6,0.9-1.2,1.7-1.7c0.8-0.5,1.8-0.9,3.2-1.3
		c1.3-0.3,3-0.5,4.9-0.5v-1c0-1.2-0.2-2-0.7-2.6c-0.5-0.6-1.2-0.8-2.1-0.8c-0.7,0-1.2,0.1-1.7,0.2c-0.4,0.2-0.8,0.3-1.2,0.5
		c-0.3,0.2-0.6,0.4-0.9,0.5c-0.3,0.2-0.6,0.2-0.9,0.2c-0.3,0-0.5-0.1-0.7-0.2c-0.2-0.1-0.4-0.3-0.5-0.5l-0.8-1.3
		c2-1.8,4.4-2.7,7.2-2.7c1,0,1.9,0.2,2.7,0.5c0.8,0.3,1.5,0.8,2,1.4c0.5,0.6,1,1.3,1.2,2.1c0.3,0.8,0.4,1.7,0.4,2.7V55.5z
		 M116.3,52.9c0.4,0,0.8,0,1.2-0.1c0.4-0.1,0.7-0.2,1-0.3c0.3-0.2,0.6-0.3,0.9-0.6c0.3-0.2,0.6-0.5,0.9-0.8v-2.9
		c-1.2,0-2.2,0.1-3,0.2c-0.8,0.2-1.5,0.3-2,0.6c-0.5,0.2-0.8,0.5-1,0.8c-0.2,0.3-0.3,0.7-0.3,1c0,0.7,0.2,1.3,0.6,1.6
		C115,52.8,115.6,52.9,116.3,52.9"/>
	<path class="st0" d="M128.2,55.5V30.6h4.1v9.6c0.7-0.6,1.4-1.1,2.2-1.5c0.8-0.4,1.7-0.6,2.8-0.6c0.9,0,1.8,0.2,2.5,0.5
		c0.7,0.3,1.3,0.8,1.8,1.3c0.5,0.6,0.9,1.3,1.1,2.1c0.3,0.8,0.4,1.7,0.4,2.6v10.9H139V44.6c0-1.1-0.2-1.9-0.7-2.4
		c-0.5-0.6-1.2-0.9-2.2-0.9c-0.7,0-1.4,0.2-2,0.5c-0.6,0.3-1.2,0.8-1.8,1.3v12.4H128.2z"/>
	<path class="st0" d="M147.2,55.5V38.3h2.4c0.4,0,0.7,0.1,0.9,0.2c0.2,0.2,0.3,0.4,0.3,0.8l0.3,2.1c0.6-1.1,1.3-1.9,2.2-2.5
		c0.8-0.6,1.8-0.9,2.8-0.9c0.8,0,1.6,0.2,2.1,0.6l-0.5,3.1c0,0.2-0.1,0.3-0.2,0.4c-0.1,0.1-0.3,0.1-0.5,0.1c-0.2,0-0.4,0-0.7-0.1
		c-0.3-0.1-0.7-0.1-1.2-0.1c-0.9,0-1.6,0.2-2.2,0.7c-0.6,0.5-1.1,1.2-1.6,2.1v10.7H147.2z"/>
	<path class="st0" d="M174.2,55.5h-1.9c-0.4,0-0.7-0.1-0.9-0.2c-0.2-0.1-0.4-0.4-0.5-0.7l-0.4-1.2c-0.4,0.4-0.9,0.7-1.3,1
		c-0.4,0.3-0.9,0.5-1.3,0.7c-0.4,0.2-0.9,0.4-1.4,0.5c-0.5,0.1-1.1,0.2-1.7,0.2c-0.7,0-1.4-0.1-2-0.3c-0.6-0.2-1.1-0.5-1.6-0.9
		c-0.4-0.4-0.8-0.9-1-1.5c-0.2-0.6-0.4-1.3-0.4-2c0-0.6,0.2-1.3,0.5-1.9c0.3-0.6,0.9-1.2,1.7-1.7c0.8-0.5,1.9-0.9,3.2-1.3
		s3-0.5,4.9-0.5v-1c0-1.2-0.2-2-0.7-2.6c-0.5-0.6-1.2-0.8-2.1-0.8c-0.7,0-1.2,0.1-1.7,0.2c-0.4,0.2-0.8,0.3-1.2,0.5
		c-0.3,0.2-0.6,0.4-0.9,0.5c-0.3,0.2-0.6,0.2-0.9,0.2c-0.3,0-0.5-0.1-0.7-0.2c-0.2-0.1-0.4-0.3-0.5-0.5l-0.8-1.3
		c2-1.8,4.4-2.7,7.2-2.7c1,0,1.9,0.2,2.7,0.5c0.8,0.3,1.5,0.8,2,1.4c0.5,0.6,1,1.3,1.2,2.1c0.3,0.8,0.4,1.7,0.4,2.7V55.5z
		 M166.1,52.9c0.4,0,0.8,0,1.2-0.1c0.4-0.1,0.7-0.2,1-0.3c0.3-0.2,0.6-0.3,0.9-0.6c0.3-0.2,0.6-0.5,0.9-0.8v-2.9
		c-1.2,0-2.2,0.1-3,0.2c-0.8,0.2-1.5,0.3-2,0.6c-0.5,0.2-0.8,0.5-1,0.8c-0.2,0.3-0.3,0.7-0.3,1c0,0.7,0.2,1.3,0.6,1.6
		C164.9,52.8,165.4,52.9,166.1,52.9"/>
	<path class="st0" d="M162.9,31.1c0,0.9,0.1,1.8,0.3,2.6c0.2,0.9,0.5,1.7,0.9,2.4c0,0.1,0.1,0.1,0.1,0.2c0,0,0,0.1,0,0.1
		c0,0.1,0,0.2-0.1,0.2c0,0.1-0.1,0.1-0.2,0.1l-0.7,0.4c-0.3-0.5-0.6-1-0.8-1.5c-0.2-0.5-0.4-1-0.6-1.5c-0.1-0.5-0.2-1-0.3-1.5
		c-0.1-0.5-0.1-1.1-0.1-1.6c0-0.5,0-1.1,0.1-1.6c0.1-0.5,0.2-1,0.3-1.5c0.1-0.5,0.3-1,0.6-1.5c0.2-0.5,0.5-1,0.8-1.5l0.7,0.4
		c0.1,0,0.1,0.1,0.2,0.1c0,0.1,0.1,0.1,0.1,0.2c0,0.1,0,0.2-0.1,0.3c-0.4,0.8-0.7,1.6-0.9,2.4C163,29.3,162.9,30.2,162.9,31.1"/>
	<path class="st0" d="M169.6,29.8c0,0.1-0.1,0.1-0.1,0.1c0,0-0.1,0-0.2,0c-0.1,0-0.2,0-0.3-0.1c-0.1,0-0.2-0.1-0.3-0.1
		c-0.1-0.1-0.3-0.1-0.4-0.1c-0.2,0-0.3-0.1-0.5-0.1c-0.3,0-0.6,0.1-0.8,0.2c-0.2,0.1-0.3,0.3-0.3,0.5c0,0.1,0,0.3,0.1,0.4
		c0.1,0.1,0.2,0.2,0.4,0.3c0.2,0.1,0.3,0.1,0.5,0.2c0.2,0.1,0.4,0.1,0.6,0.2c0.2,0.1,0.4,0.1,0.6,0.2c0.2,0.1,0.4,0.2,0.5,0.3
		c0.2,0.1,0.3,0.3,0.4,0.5c0.1,0.2,0.1,0.4,0.1,0.7c0,0.3-0.1,0.6-0.2,0.9c-0.1,0.3-0.3,0.5-0.5,0.7c-0.2,0.2-0.5,0.4-0.8,0.5
		c-0.3,0.1-0.7,0.2-1.1,0.2c-0.2,0-0.5,0-0.7-0.1c-0.2,0-0.4-0.1-0.6-0.2c-0.2-0.1-0.4-0.2-0.6-0.3c-0.2-0.1-0.3-0.2-0.5-0.3
		l0.4-0.6c0-0.1,0.1-0.1,0.2-0.2c0.1,0,0.1-0.1,0.2-0.1c0.1,0,0.2,0,0.3,0.1c0.1,0.1,0.2,0.1,0.3,0.2c0.1,0.1,0.3,0.1,0.4,0.2
		c0.2,0.1,0.4,0.1,0.6,0.1c0.2,0,0.4,0,0.5-0.1c0.1,0,0.3-0.1,0.3-0.2c0.1-0.1,0.2-0.2,0.2-0.3c0-0.1,0.1-0.2,0.1-0.3
		c0-0.2,0-0.3-0.1-0.4c-0.1-0.1-0.2-0.2-0.4-0.3c-0.2-0.1-0.3-0.1-0.5-0.2c-0.2-0.1-0.4-0.1-0.6-0.2c-0.2-0.1-0.4-0.2-0.6-0.2
		c-0.2-0.1-0.4-0.2-0.5-0.4c-0.2-0.1-0.3-0.3-0.4-0.5c-0.1-0.2-0.1-0.5-0.1-0.8c0-0.3,0.1-0.5,0.2-0.8c0.1-0.2,0.3-0.5,0.5-0.6
		c0.2-0.2,0.5-0.3,0.8-0.4c0.3-0.1,0.7-0.2,1.1-0.2c0.5,0,0.9,0.1,1.3,0.2c0.4,0.2,0.7,0.4,0.9,0.6L169.6,29.8z"/>
	<path class="st0" d="M172.3,31.1c0-0.9-0.1-1.8-0.3-2.6c-0.2-0.9-0.5-1.7-0.9-2.4c-0.1-0.1-0.1-0.2-0.1-0.3c0-0.1,0-0.2,0.1-0.2
		c0-0.1,0.1-0.1,0.2-0.1l0.7-0.4c0.3,0.5,0.6,1,0.8,1.5c0.2,0.5,0.4,1,0.6,1.5c0.1,0.5,0.2,1,0.3,1.5c0.1,0.5,0.1,1.1,0.1,1.6
		c0,0.5,0,1.1-0.1,1.6c-0.1,0.5-0.2,1-0.3,1.5c-0.1,0.5-0.3,1-0.6,1.5c-0.2,0.5-0.5,1-0.8,1.5l-0.7-0.4c-0.1,0-0.1-0.1-0.2-0.1
		c0-0.1-0.1-0.1-0.1-0.2c0,0,0-0.1,0-0.1c0,0,0-0.1,0.1-0.2c0.4-0.8,0.7-1.6,0.9-2.4C172.2,32.9,172.3,32,172.3,31.1"/>
</g>
</svg>
