<?xml version="1.0" encoding="utf-8"?>
<!-- Generator: Adobe Illustrator 24.0.3, SVG Export Plug-In . SVG Version: 6.00 Build 0)  -->
<svg version="1.1" id="Layer_1" xmlns="http://www.w3.org/2000/svg" xmlns:xlink="http://www.w3.org/1999/xlink" x="0px" y="0px"
	 viewBox="0 0 254.4 88.7" style="enable-background:new 0 0 254.4 88.7;" xml:space="preserve">
<g>
	<g>
		<path d="M77.4,69.3l8.3-15.1l1.5-1.5h-9.8v-4.1h14.3v4.1L83.3,68l-1.5,1.3h9.8v4.1H77.4V69.3z"/>
		<path d="M103.2,67.8h-5.8L96,73.4h-4.4l7.2-24.9h3.5l7.2,24.9h-4.7L103.2,67.8z M98.4,64.2h4.1l-1.4-5.8l-0.6-3.9h-0.1l-0.6,3.9
			L98.4,64.2z"/>
		<path d="M122.2,63h-6.8v10.5H111V48.7h4.5v10.2h6.8V48.7h4.5v24.8h-4.5V63H122.2z"/>
		<path d="M129.8,48.9c1-0.2,2-0.4,3.1-0.5s2.1-0.1,2.9-0.1c1,0,2,0.1,3,0.3s1.8,0.6,2.6,1.1s1.3,1.3,1.8,2.2s0.7,2.1,0.7,3.5
			c0,2-0.4,3.6-1.1,4.9c-0.7,1.3-1.8,2.1-3.1,2.6l1.4,1.1l4.6,9.5h-5.1l-4.3-9.8l-1.9-0.5v10.2h-4.5L129.8,48.9L129.8,48.9z
			 M134.3,60.2h1.5c1.1,0,1.9-0.3,2.5-1s0.8-1.7,0.8-3.1c0-1.1-0.2-1.9-0.7-2.6c-0.5-0.7-1.2-1-2.2-1c-0.4,0-0.7,0-1.1,0
			c-0.4,0-0.6,0.1-0.8,0.1V60.2z"/>
		<path d="M156.5,67.8h-5.8l-1.5,5.7h-4.4l7.2-24.9h3.5l7.2,24.9H158L156.5,67.8z M151.6,64.2h4.1l-1.4-5.8l-0.6-3.9h-0.1l-0.6,3.9
			L151.6,64.2z"/>
		<path d="M184,52.8h-5.8v20.7h-4.5V52.8h-5.9v-4.1H184V52.8z"/>
		<path d="M185.8,48.9c1-0.2,2-0.4,3.1-0.5s2.1-0.1,2.9-0.1c1,0,2,0.1,3,0.3s1.8,0.6,2.6,1.1s1.3,1.3,1.8,2.2s0.7,2.1,0.7,3.5
			c0,2-0.4,3.6-1.1,4.9c-0.7,1.3-1.8,2.1-3.1,2.6l1.4,1.1l4.6,9.5h-5.1l-4.3-9.8l-1.9-0.5v10.2h-4.5L185.8,48.9L185.8,48.9z
			 M190.3,60.2h1.5c1.1,0,1.9-0.3,2.5-1s0.8-1.7,0.8-3.1c0-1.1-0.2-1.9-0.7-2.6c-0.5-0.7-1.2-1-2.2-1c-0.4,0-0.7,0-1.1,0
			c-0.4,0-0.6,0.1-0.8,0.1V60.2z"/>
		<path d="M214.6,48.7h4.2v16.1c0,3.2-0.7,5.5-2,7c-1.3,1.4-3.1,2.2-5.4,2.2c-2.7,0-4.7-0.7-6-2.1s-1.9-3.5-1.9-6.4V48.7h4.5v15.9
			c0,1.9,0.3,3.3,0.8,4.1c0.5,0.8,1.4,1.1,2.6,1.1c1.2,0,2-0.4,2.5-1.2c0.5-0.8,0.7-2.1,0.7-4L214.6,48.7L214.6,48.7z"/>
		<path d="M230.5,67.1c0-0.8-0.2-1.4-0.7-1.9c-0.4-0.5-1-1-1.7-1.5s-1.4-1-2.2-1.5s-1.5-1.1-2.2-1.7c-0.7-0.7-1.2-1.4-1.7-2.3
			c-0.4-0.9-0.7-2-0.7-3.3c0-1.2,0.2-2.2,0.5-3.1c0.4-0.8,0.9-1.5,1.5-2.1c0.6-0.5,1.4-0.9,2.3-1.2c0.9-0.2,1.8-0.4,2.8-0.4
			c1.2,0,2.3,0.1,3.4,0.4s1.9,0.6,2.6,1l-1.4,3.9c-0.4-0.3-1-0.5-1.8-0.8c-0.8-0.2-1.6-0.4-2.6-0.4c-0.9,0-1.6,0.2-2.1,0.6
			c-0.5,0.4-0.7,0.9-0.7,1.7c0,0.7,0.2,1.2,0.7,1.8c0.4,0.5,1,1,1.7,1.5s1.4,1,2.2,1.5s1.5,1.1,2.2,1.8s1.2,1.5,1.7,2.4
			c0.4,0.9,0.7,2,0.7,3.2c0,1.3-0.2,2.3-0.5,3.3c-0.4,0.9-0.9,1.7-1.6,2.3s-1.5,1.1-2.4,1.4s-2,0.5-3.1,0.5c-1.5,0-2.7-0.1-3.8-0.4
			s-1.9-0.6-2.5-1l1.5-4c0.5,0.3,1.1,0.6,1.9,0.8c0.8,0.3,1.7,0.4,2.7,0.4C229.3,69.8,230.5,68.9,230.5,67.1z"/>
		<path d="M252.2,52.8h-5.8v20.7H242V52.8h-5.9v-4.1h16.2v4.1H252.2z"/>
	</g>
</g>
<g>
	<g>
		<path d="M91.5,23.9h-5.8v20.7h-4.5V23.9h-5.9v-4.1h16.2V23.9z"/>
		<path d="M104.6,34.1h-6.8v10.5h-4.5V19.8h4.5V30h6.8V19.8h4.5v24.8h-4.5V34.1z"/>
		<path d="M112.2,19.8h12.4v4.1h-7.9V30h7.2v4.1h-7.2v6.4h8.1v4.1h-12.5L112.2,19.8L112.2,19.8z"/>
	</g>
</g>
<g id="bfxqoV.tif">
	<g>
		<path d="M29.5,43.6c0.2,0.3,0.5,0.6,0.7,0.9c1.2,1.4,2.7,2.1,4.5,2c1.2-0.1,2.5-0.2,3.7-0.4c2.7-0.5,5.2,0.1,7.5,1.4
			c0.9,0.5,1.6,1.1,2.4,1.7c1.2,0.9,1.6,2.2,1.4,3.6c-0.2,1.2-0.4,2.4-0.7,3.6c-0.4,1.4-1.4,2.3-2.7,2.9c-1.2,0.5-2.5,0.8-3.8,0.8
			c-1.8,0-3.6,0.3-5.3,1c-0.8,0.3-1.6,0.6-2.5,0.9c-3,1-5.2,3-6.6,5.8c-1,1.9-1.9,3.8-2.8,5.8c-1.2,2.5-2.6,4.8-4.6,6.8
			c0,0-0.1,0.1-0.1,0.2c0.6,0.2,1.2,0.3,1.8,0.4c3.2,0.6,6.3,0.4,9.4-0.2s6-1.6,8.6-3.3c2.1-1.4,3.8-3.3,4.9-5.6
			c0.3-0.6,0.4-1.2,0.5-1.8c0.1-0.6-0.2-1.1-0.6-1.5c-0.2-0.2-0.5-0.5-0.7-0.7c-0.7-0.5-0.9-1.2-0.7-2c0.4-1.6,0.8-3.2,1.5-4.8
			c0.2-0.5,0.3-0.5,0.8-0.2c0.8,0.5,1.5,1,2.3,1.5c1.4,0.8,2.8,1.3,4.5,1.3c1,0,1.9-0.3,2.7-0.8c1.1-0.6,1.7-1.6,1.7-2.9
			c0.1-2.5-0.6-4.8-1.4-7.1c-1.7-4.6-4.2-8.6-7.6-12.2c-2.9-3-5.9-5.9-8.8-8.8c-2.1-2-4.1-4-5.8-6.4c-1.1-1.5-2.1-3.1-2.5-4.9
			c-0.7-2.9-0.5-5.7,0.7-8.4c0.3-0.7,0.7-1.3,1.3-1.9c-0.1,0.5-0.2,1-0.3,1.5c-0.3,1.7,0.1,3.3,0.8,4.9c1,2.3,2.5,4.3,4.1,6.2
			c2.5,3,5.4,5.7,8.3,8.3c2.9,2.6,5.7,5.2,8.3,8.1c1.6,1.9,3.1,3.8,4.3,6c1.6,3,2.4,6.3,2.2,9.7c-0.3,4-1.5,7.8-3.9,11.1
			c-1.4,1.9-3.3,3.1-5.6,3.7c-0.8,0.2-1.6,0.4-2.4,0.6c-0.5,0.1-0.7,0.4-0.8,0.8c-0.9,2.8-2.1,5.5-3.9,7.9c-1.9,2.6-4.5,4.3-7.4,5.7
			c-3.2,1.5-6.5,2.4-10.1,2.3c-3.7-0.1-6.9-1.3-9.4-4.1c-0.1-0.2-0.2-0.2-0.5-0.1c-3.9,2-7.5,0.3-9.7-2.5c-1.4-1.8-2.2-3.9-2.6-6.2
			c-0.4-2.5-0.4-5.1-0.1-7.6c0.3-1.8,0.6-3.6,0.9-5.4c0-0.2,0-0.5-0.1-0.6c-1.2-1.4-1.9-3.1-2.4-4.9c-0.5-1.5-0.7-3-0.7-4.6
			c-0.1-1.6-0.1-3.3-0.1-4.9c0.2-2.9,0.9-5.6,2-8.2c1.5-3.6,3.7-6.8,6-9.8c4-5.3,8.6-10,13.5-14.5c1.4-1.3,2.9-2.5,4.4-3.7
			c0.5-0.4,1-0.7,1.5-1c0.1-0.1,0.3-0.1,0.5-0.2c-0.3,0.4-0.5,0.7-0.6,1c-0.8,1.4-1.2,2.9-1.5,4.5c-0.4,2.3-0.8,4.7-1,7.1
			c-0.3,2.5-0.5,5-0.8,7.4c-0.2,1.8-0.3,3.7-0.5,5.5c-0.6,5.5-1.3,10.9-3.1,16.1c-1.5,4.3-3.7,8.2-6.4,11.9
			c-1.6,2.2-3.3,4.3-5.3,6.1c-1.1,1.1-2.4,2.1-3.6,3.1C7,71.7,6.9,71.8,7,72.1c0.5,1.4,1.4,2.5,2.5,3.4c1.3,1.1,2.7,1.9,4.5,1.9h0.1
			c1,0,1,0,1-1c-0.1-2.3,0.5-4.4,1.5-6.5c0.1-0.3,0.3-0.6,0.5-0.9c0,0,0.1,0,0.1-0.1c-0.2,2.6-0.9,5.1,0,7.7c0.6-0.3,1-0.5,1.5-0.8
			c1.6-1,2.9-2.4,4-3.9c2.4-3.1,4.4-6.6,6.3-10.1c0.4-0.7,0.5-1.1-0.1-1.8c-0.7-0.7-0.9-1.7-1-2.8c-0.1-1.9,0.4-3.7,1.1-5.4l0,0
			c0.5-0.9,0.4-1.6-0.4-2.3c-0.4-0.4-0.5-0.9-0.3-1.5C28.5,46.6,28.9,45.2,29.5,43.6C29.4,43.7,29.4,43.7,29.5,43.6z M22.2,18.1
			c-0.2,0.1-0.3,0.2-0.4,0.3c-0.6,0.5-1.2,0.9-1.8,1.4c-2.7,2.4-5.1,5-7.3,7.8C10.5,30.2,8.6,33,7.1,36c-1.4,2.9-2.3,5.9-2.4,9.1
			c0,2.8,0.7,5.4,2.3,7.7c0.1,0.2,0.2,0.3,0.4,0.5c0.5-1.1,1-2.1,1.5-3.1c0,0,0.1,0,0.1,0.1c-0.3,0.9-0.5,1.8-0.8,2.6
			C7.8,53.7,8,54.4,8.5,55c0.6,0.6,0.6,1.3,0.2,2c-0.8,1.5-1.5,3.1-2.3,4.6c0,0,0,0.1-0.1,0.1s-0.3,0-0.4-0.1
			c-0.4,3.2-0.5,6.4,0.5,9.6c0.5-0.4,0.9-0.8,1.2-1.3c2.5-3.2,4.6-6.7,6.5-10.3c2.2-4.1,3.6-8.4,4.4-12.9c0.4-2.5,0.9-5,1.3-7.6
			c0.3-1.8,0.5-3.7,0.8-5.5c0.2-1.4,0.4-2.9,0.5-4.3c0.2-1.4,0.3-2.9,0.4-4.4c0.1-1.1,0.2-2.2,0.3-3.3C22,20.6,22.1,19.4,22.2,18.1z
			 M36.9,54.9c-1.1-1.4-2.4-2.4-4-2.8c-0.9-0.2-1.7-0.1-2.5,0.5c-0.5,0.4-0.7,1-0.6,1.6c0.4,1.7,2.1,2.8,3.8,2.3
			C34.8,56.3,35.8,55.6,36.9,54.9z M39.5,55.7c2.2-0.7,4.4-0.5,6.7-0.8c-0.1-0.1-0.1-0.2-0.2-0.2c-1.4-1-2.9-1.7-4.6-2
			c-0.4-0.1-0.8,0-1.1,0.3C39.7,53.8,39.5,54.7,39.5,55.7z"/>
		<path d="M52.6,13.2c0,3-0.7,5.4-1.7,7.7c-0.2,0.4-0.3,0.8-0.5,1.2c-0.1,0.3,0,0.4,0.2,0.6c1.3,1.2,2.6,2.3,3.8,3.5
			c3.6,3.4,6.9,7.2,9.4,11.5c2.1,3.6,3.5,7.3,4.3,11.4c0.5,2.6,0.6,5.3,0.4,7.9c-0.7,7-3.5,12.8-8.6,17.6c-3.4,3.3-7.5,5.5-12,7
			c-0.9,0.3-1.8,0.5-2.7,0.8c-0.1,0-0.3,0.1-0.4,0.1c-0.3,0-0.4-0.2-0.2-0.4c0.1-0.1,0.2-0.3,0.4-0.4c2.4-1.2,4.5-2.8,6.5-4.7
			c2.9-2.7,5.5-5.6,7.6-9c2-3.4,3.5-7,4.2-10.9c0.4-2.2,0.5-4.4,0.3-6.6c-0.3-3.2-1.4-6.1-3-8.9c-2-3.5-4.5-6.6-7.2-9.5
			c-3-3.1-6.1-6.2-9.1-9.2c-1.8-1.8-3.5-3.8-4.8-6c-0.9-1.6-1.6-3.2-1.7-5c-0.2-2.2,0.3-4.2,1.3-6.1c0.8-1.5,1.7-2.7,3.1-3.7
			c1.1-0.8,2.3-0.9,3.4-0.1c3,1.9,5.3,4.4,6.4,7.9C52.4,11.2,52.6,12.4,52.6,13.2z M49.9,22.3c0.1,0,0.1-0.1,0.2-0.1
			c0.1-1,0.3-1.9,0.3-2.9c0-2.5-0.7-4.8-1.9-6.9c-1.9-3.3-4.6-5.8-7.8-7.8c0,0-0.1,0-0.2-0.1c0,0.8-0.1,1.7,0,2.4
			c0.5,2.9,1.4,5.7,3.1,8.1c1.7,2.4,3.6,4.5,5.7,6.5C49.6,21.8,49.8,22,49.9,22.3z"/>
		<path d="M26.6,38.8c0.4-1.2,0.8-2.2,1.2-3.3c0.5-1.4,0.9-2.7,1.4-4.1c0.1-0.2,0.1-0.3,0.4-0.3c2.8,0.4,5.2,1.6,6.4,4.3
			c1.1,2.3,0.5,5-1.3,6.8c-0.1,0.1-0.2,0.2-0.3,0.2c-0.5,0.3-0.6,0.3-1-0.1c-1.1-1-2.2-1.9-3.5-2.6C28.9,39.3,27.8,38.9,26.6,38.8z"
			/>
		<path d="M7.9,39.4c-0.1,0-0.1,0-0.2,0c-0.1,0.2-0.3,0.4-0.3,0.6c0,0.9-0.1,1.9,0,2.8c0.3,1.9,1.9,2.8,3.5,2
			c0.7-0.4,1.3-0.9,1.7-1.6c1-1.6,1.3-3.3,1-5.2c0-0.2-0.1-0.4,0.2-0.5c1.3-0.5,2.1-1.5,2.8-2.7c0.2-0.4,0.4-0.7,0.7-1
			c0.4-0.4,0.5-1,0.5-1.5c0-0.3-0.2-0.4-0.5-0.2c-0.1,0.1-0.3,0.2-0.4,0.3c-0.4,0.5-0.8,1-1.1,1.6c-0.7,1.1-1.6,1.9-2.9,2.1
			c-0.4,0.1-0.6,0.4-0.5,0.8c0.1,0.3,0.1,0.6,0.2,1c0.2,0.8,0.2,1.5,0.1,2.3c-0.3,1.5-1.6,2.6-3.1,2.7C8.8,43,8.2,42.5,8,41.7
			c0-0.6,0-1.1,0-1.7C8,39.8,7.9,39.6,7.9,39.4z"/>
		<path d="M7.9,39.4C7.9,39.6,8,39.8,8,40c0,0.6,0,1.1,0.1,1.7c0.1,0.8,0.8,1.3,1.6,1.2c1.4-0.1,2.7-1.2,3.1-2.7
			c0.2-0.8,0.2-1.5-0.1-2.3c-0.1-0.3-0.2-0.6-0.2-1c-0.1-0.5,0.1-0.8,0.5-0.8c1.3-0.2,2.2-1,2.9-2.1c0.3-0.5,0.7-1.1,1.1-1.6
			c0.1-0.1,0.2-0.2,0.4-0.3c0.3-0.2,0.5-0.1,0.5,0.2c0,0.5,0,1.1-0.5,1.5c-0.3,0.3-0.5,0.7-0.7,1c-0.6,1.2-1.4,2.3-2.8,2.7
			c-0.3,0.1-0.2,0.3-0.2,0.5c0.2,1.8-0.1,3.6-1,5.2c-0.4,0.7-0.9,1.3-1.7,1.6c-1.6,0.8-3.2-0.1-3.5-2c-0.1-0.9,0-1.9,0-2.8
			C7.5,39.8,7.7,39.6,7.9,39.4C7.8,39.4,7.8,39.4,7.9,39.4z"/>
	</g>
</g>
</svg>
