<?xml version="1.0" ?><svg height="128" id="Icons" viewBox="0 0 128 128" width="128" xmlns="http://www.w3.org/2000/svg"><defs><style>.cls-1,.cls-3,.cls-4{fill:none;stroke:#383838;stroke-linecap:round;stroke-linejoin:round;stroke-width:3px;}.cls-2{fill:#383838;}.cls-3{stroke-dasharray:6.28 10.05;}.cls-4{stroke-dasharray:2.26 7.54;}</style></defs><title/><path class="cls-1" d="M114.43,75.9a6.87,6.87,0,0,0-13.73,0,6.94,6.94,0,0,0,.62,2.85,7,7,0,0,0,6.07,10.59"/><path class="cls-1" d="M23.93,17.27a4.17,4.17,0,0,0-2-.51,4.11,4.11,0,0,0-2.72,1,4.06,4.06,0,0,0-2.71-1,4.1,4.1,0,0,0-4.1,4.1,4,4,0,0,0,.19,1.24c.68,2.92,6.09,6.34,6.32,6.49a.56.56,0,0,0,.31.09.55.55,0,0,0,.3-.09c.23-.15,5.64-3.57,6.32-6.49a4.34,4.34,0,0,0,.19-1.24,4.11,4.11,0,0,0-2.12-3.59Z"/><circle class="cls-1" cx="116" cy="86" r="8.5"/><path class="cls-1" d="M86,21.5a2.93,2.93,0,0,0,.18-1,3,3,0,0,0-3-3,5.9,5.9,0,0,0-11.63-1.45,4.74,4.74,0,0,0-4.11-.1,4.94,4.94,0,0,0-2.78,3.13,5,5,0,0,0-.09,2.36Z"/><path class="cls-1" d="M118.12,31.5a2.91,2.91,0,0,0-2.77-3.94,5.9,5.9,0,0,0-11.63-1.45,4.74,4.74,0,0,0-4.11-.1,4.88,4.88,0,0,0-2.87,5.49Z"/><path class="cls-1" d="M119.17,62.37A4.22,4.22,0,0,0,113.81,65l8,2.73A4.23,4.23,0,0,0,119.17,62.37Z"/><path class="cls-2" d="M8.65,62.4A3.38,3.38,0,0,1,9.86,67L4,63.61A3.4,3.4,0,0,1,8.65,62.4Z"/><path class="cls-1" d="M26.55,79.26a7.75,7.75,0,1,0-13.21-7.67A6.71,6.71,0,0,0,9.73,83a5.38,5.38,0,0,0-.31,1,6.2,6.2,0,0,0,10.65,5.52A6.17,6.17,0,0,0,28.24,85,6.17,6.17,0,0,0,26.55,79.26Z"/><line class="cls-1" x1="26.5" x2="100.5" y1="92.5" y2="92.5"/><line class="cls-1" x1="115.5" x2="115.5" y1="88.5" y2="100.5"/><path class="cls-2" d="M89.52,28.89a1.39,1.39,0,0,0-1.4-1.38,1.37,1.37,0,0,0-1.37,1.39,1.39,1.39,0,0,0,2.77,0Z"/><line class="cls-1" x1="19.5" x2="19.5" y1="77.5" y2="96.5"/><line class="cls-1" x1="106.5" x2="106.5" y1="89.5" y2="96.5"/><path class="cls-1" d="M19.5,88.14a4.24,4.24,0,0,1-4.72-2.46,6.14,6.14,0,0,1,.28-5.92"/><line class="cls-1" x1="7.5" x2="121.5" y1="117.5" y2="117.5"/><line class="cls-1" x1="7.5" x2="10.47" y1="112.5" y2="112.5"/><line class="cls-3" x1="20.52" x2="113.5" y1="112.5" y2="112.5"/><line class="cls-1" x1="118.53" x2="121.5" y1="112.5" y2="112.5"/><polyline class="cls-1" points="23.5 62.5 23.5 51.5 105.5 51.5 105.5 64.5"/><polyline class="cls-1" points="23.5 51.5 37.24 34.5 50.98 51.7"/><polyline class="cls-1" points="50.43 51.48 64.64 34.5 79.05 51.7"/><polyline class="cls-1" points="78.49 51.48 92 34.5 105.5 51.5"/><line class="cls-1" x1="78.5" x2="78.5" y1="52.5" y2="92.5"/><line class="cls-1" x1="50.5" x2="50.5" y1="52.5" y2="92.5"/><line class="cls-1" x1="41.5" x2="81.5" y1="28.5" y2="28.5"/><line class="cls-1" x1="37.69" x2="92" y1="34.5" y2="34.5"/><rect class="cls-1" height="7" width="7" x="33.5" y="60.5"/><rect class="cls-1" height="7" width="7" x="88.5" y="60.5"/><rect class="cls-1" height="7" width="7" x="33.5" y="74.5"/><rect class="cls-1" height="7" width="7" x="88.5" y="74.5"/><line class="cls-1" x1="56.5" x2="58.5" y1="60.5" y2="60.5"/><line class="cls-4" x1="63.5" x2="65.5" y1="60.5" y2="60.5"/><line class="cls-1" x1="70.5" x2="72.5" y1="60.5" y2="60.5"/><line class="cls-1" x1="56.5" x2="58.5" y1="72.5" y2="72.5"/><line class="cls-4" x1="63.5" x2="65.5" y1="72.5" y2="72.5"/><line class="cls-1" x1="70.5" x2="72.5" y1="72.5" y2="72.5"/><line class="cls-1" x1="56.5" x2="58.5" y1="84.5" y2="84.5"/><line class="cls-4" x1="63.5" x2="65.5" y1="84.5" y2="84.5"/><line class="cls-1" x1="70.5" x2="72.5" y1="84.5" y2="84.5"/><line class="cls-1" x1="56.5" x2="72.5" y1="66.5" y2="66.5"/><line class="cls-1" x1="56.5" x2="72.5" y1="78.5" y2="78.5"/><line class="cls-1" x1="23.67" x2="24.6" y1="10.85" y2="8.38"/><line class="cls-1" x1="14.58" x2="13.49" y1="11.16" y2="8.75"/><line class="cls-1" x1="8.19" x2="5.71" y1="17.81" y2="16.88"/><line class="cls-1" x1="8.5" x2="6.09" y1="26.9" y2="27.99"/><line class="cls-1" x1="15.14" x2="14.22" y1="33.11" y2="35.58"/><line class="cls-1" x1="24.24" x2="25.33" y1="32.8" y2="35.21"/><line class="cls-1" x1="30.45" x2="32.92" y1="26.15" y2="27.08"/><line class="cls-1" x1="30.14" x2="32.55" y1="17.06" y2="15.97"/><line class="cls-1" x1="7.5" x2="120.5" y1="106.5" y2="106.5"/><path class="cls-1" d="M115.74,100.9a11.24,11.24,0,0,0-17.36.28,11.23,11.23,0,0,0-17.58,0,11.23,11.23,0,0,0-17.58,0,11.23,11.23,0,0,0-17.58,0,11.23,11.23,0,0,0-17.58,0,11.24,11.24,0,0,0-18.35,1.08"/></svg>