<?xml version="1.0" ?><svg height="128" id="Icons" viewBox="0 0 128 128" width="128" xmlns="http://www.w3.org/2000/svg"><defs><style>.cls-1{fill:none;stroke:#383838;stroke-linecap:round;stroke-linejoin:round;stroke-width:3px;}.cls-2{fill:#383838;}</style></defs><title/><rect class="cls-1" height="21" width="6" x="37.5" y="76.5"/><circle class="cls-1" cx="40.29" cy="36.13" r="6.52"/><line class="cls-1" x1="81.5" x2="83.5" y1="21.5" y2="21.5"/><line class="cls-1" x1="89.5" x2="91.5" y1="21.5" y2="21.5"/><path class="cls-1" d="M83.64,28.33a4.37,4.37,0,0,0,5.66,0"/><path class="cls-1" d="M73.53,37a22.45,22.45,0,0,1-2.63-9.92c-.09-1.21-.85-14.34,7.46-20.42A14,14,0,0,1,85.27,4a11.76,11.76,0,0,1,2,0,14,14,0,0,1,6.91,2.59c8.32,6.08,7.56,19.21,7.47,20.42a24.62,24.62,0,0,1-2.77,9.55"/><path class="cls-1" d="M95.69,18.79a13.67,13.67,0,0,1,.47,3.83,12.27,12.27,0,0,1-1.85,6.61c-1.64,2.58-4.79,5.32-8,5.44-3.26-.12-6.4-2.86-8-5.44a12.41,12.41,0,0,1-1.86-6.61,11.26,11.26,0,0,1,4.34-8.73,40.09,40.09,0,0,0,15,4.76"/><polyline class="cls-1" points="78.67 35.63 78.5 42.01 86 38.68 93.5 42.01 93.5 35.72"/><path class="cls-2" d="M113.6,122.56a1.45,1.45,0,1,0,1.45-1.45A1.45,1.45,0,0,0,113.6,122.56Z"/><path class="cls-1" d="M47.3,74c-1.4,1.22-6.43,1.14-6.43,1.14s.62-5,2-6.21A3.36,3.36,0,0,1,47.3,74Z"/><path class="cls-1" d="M33.83,74c1.4,1.22,6.42,1.14,6.42,1.14s-.62-5-2-6.21A3.36,3.36,0,0,0,33.83,74Z"/><rect class="cls-1" height="14" width="28" x="26.5" y="83.5"/><rect class="cls-1" height="7" width="32" x="24.5" y="76.5"/><line class="cls-1" x1="11.5" x2="108.5" y1="122.5" y2="122.5"/><path class="cls-1" d="M91.43,73.5a6.72,6.72,0,0,1-4.94,2,6.61,6.61,0,0,1-4.88-2H81.5v.63a69.69,69.69,0,0,1-3.42,18.79c-.51,1.59-1.12,3.21-1.83,4.88l-1.65,3.55a23.11,23.11,0,0,1-1.13,2.6,18,18,0,0,0,7.91,3.62,25.66,25.66,0,0,0,10.28,0,21.29,21.29,0,0,0,6.68-2.43,13.09,13.09,0,0,0,1.5-1c-.64-1.18-1.23-2.35-1.78-3.49a64.15,64.15,0,0,1-3.61-9.27,73.5,73.5,0,0,1-3-17.21V73.5Z"/><path class="cls-1" d="M99.74,92a40.51,40.51,0,0,0,8.9-4c-.48-3.2-5.7-13.67-5.7-13.67"/><path class="cls-1" d="M73.53,66.59c1-1.7,1.71-3.31,2.63-4.69a24.47,24.47,0,0,0-1-10.12c-.2-.62-.43-1.22-.64-1.83A8.81,8.81,0,0,1,74,45.41a20.34,20.34,0,0,1,1.38-4.1c.64-1.65,1.24-3,1.7-4,0,0,0,0,0-.07"/><path class="cls-1" d="M99.72,66.59c-1-1.7-1.8-3.31-2.73-4.69a24.64,24.64,0,0,1,1-10.12c.21-.62.43-1.22.64-1.83a8.8,8.8,0,0,0,.54-4.54,20.56,20.56,0,0,0-1.39-4.1c-.64-1.65-1.24-3-1.7-4,0,0,0,0,0-.07"/><path class="cls-1" d="M72.74,91.65a41.32,41.32,0,0,1-8-3.7c.52-3.46,5.09-14,5.09-14"/><path class="cls-1" d="M89,117.5H84a3.49,3.49,0,0,0-3.36,3.59A1.37,1.37,0,0,0,82,122.5h9.06a1.37,1.37,0,0,0,1.32-1.41A3.49,3.49,0,0,0,89,117.5Z"/><path class="cls-1" d="M92.94,63.15l.23-.73a7.68,7.68,0,0,0-3.11-8.88,6.13,6.13,0,0,0-7.09,0,7.71,7.71,0,0,0-3.11,8.88l.24.73"/><path class="cls-1" d="M86.53,71.47c3.84,0,6.41-4.54,6.41-8.42a3.37,3.37,0,0,0-1.48-3.14c-1.35-.91-3.78-.52-4.94-2.58-1.16,2.06-3.6,1.67-4.94,2.58a3.37,3.37,0,0,0-1.48,3.14c0,3.88,2.57,8.42,6.4,8.42"/><line class="cls-1" x1="91.69" x2="92.66" y1="118.93" y2="107.57"/><line class="cls-1" x1="80.38" x2="81.23" y1="107.57" y2="119.11"/><line class="cls-1" x1="86.5" x2="86.5" y1="118.5" y2="108.5"/><path class="cls-1" d="M91.49,74.21c2.14,1.13,4.68,6.71,4.68,6.71,1.28,3.74,1.52,8.36-.45,12"/><path class="cls-1" d="M77.38,93.67A15.17,15.17,0,0,1,81.5,74.51"/><path class="cls-1" d="M82.21,52.9s.21-5.24,4.32-5.24S91,52.9,91,52.9"/><path class="cls-1" d="M75.42,71.32c-2.13-2.94-6.22-10.65-6.22-14.58,0-.47,0-.94.07-1.4.15-2,1.88-6.39,4.08-7.37"/><path class="cls-1" d="M75.79,71.78l2.31,2.14a2.81,2.81,0,0,1-4.16,3.77l-2-2.08Z"/><path class="cls-1" d="M78.67,35.64a26.61,26.61,0,0,0-7.15,4.27A21,21,0,0,0,63.7,56.23c-.11,6.29,3.29,11.94,8.18,18.85"/><path class="cls-1" d="M97.31,71.32c2.12-2.94,6.21-10.65,6.21-14.58,0-.47,0-.94-.07-1.4-.15-2-1.88-6.39-4.08-7.37"/><path class="cls-1" d="M96.93,71.78l-2.31,2.14a2.81,2.81,0,0,0,4.16,3.77l2-2.08Z"/><path class="cls-1" d="M93.69,35.64a24.64,24.64,0,0,1,8,4.27,21,21,0,0,1,7.81,16.32c.11,6.29-3.33,11.82-8.22,18.73"/><polyline class="cls-1" points="21.5 122.5 21.5 97.5 60.5 97.5 60.5 122.5"/><line class="cls-1" x1="34.5" x2="34.5" y1="97.5" y2="122.5"/><line class="cls-1" x1="46.5" x2="46.5" y1="97.5" y2="122.5"/><line class="cls-1" x1="44.71" x2="45.65" y1="25.05" y2="22.58"/><line class="cls-1" x1="35.64" x2="34.56" y1="25.3" y2="22.89"/><line class="cls-1" x1="29.21" x2="26.75" y1="31.89" y2="30.95"/><line class="cls-1" x1="29.46" x2="27.06" y1="40.97" y2="42.04"/><line class="cls-1" x1="36.06" x2="35.12" y1="47.21" y2="49.67"/><line class="cls-1" x1="45.13" x2="46.21" y1="46.96" y2="49.36"/><line class="cls-1" x1="51.38" x2="53.84" y1="40.36" y2="41.3"/><line class="cls-1" x1="51.13" x2="53.53" y1="31.29" y2="30.21"/></svg>