<?xml version="1.0" ?><svg height="128" id="Icons" viewBox="0 0 128 128" width="128" xmlns="http://www.w3.org/2000/svg"><defs><style>.cls-1{fill:#383838;}.cls-2,.cls-3{fill:none;stroke:#383838;stroke-linecap:round;stroke-linejoin:round;stroke-width:3px;}.cls-3{stroke-dasharray:3 10;}</style></defs><title/><path class="cls-1" d="M50.13,8.83c-.84,1.49-1.86,3.92-.81,5.38,1.18,1.72,4.2,3.61,4.68,6.28.38,2-1,4.42-4.32,4.47.39-.82,1.45-1.46,1.09-2.74-.21-.75-1-1.22-1.63-1.65C42,15.72,45,10.05,50.13,8.83Z"/><path class="cls-1" d="M61.11,8.83c-.84,1.49-1.86,3.92-.81,5.38,1.18,1.72,4.2,3.61,4.68,6.28.39,2-1,4.42-4.32,4.47.39-.82,1.45-1.46,1.09-2.74-.21-.75-1-1.22-1.63-1.65C53,15.72,55.94,10.05,61.11,8.83Z"/><path class="cls-1" d="M72.09,8.83c-.84,1.49-1.85,3.92-.81,5.38,1.18,1.72,4.2,3.61,4.68,6.28.39,2-1,4.42-4.31,4.47.39-.82,1.44-1.46,1.08-2.74-.21-.75-1-1.22-1.63-1.65C64,15.72,66.93,10.05,72.09,8.83Z"/><path class="cls-2" d="M69,75.44,55.07,80.58a15.54,15.54,0,0,1-11,.87l-.26-.08L32,77.44"/><path class="cls-2" d="M16.28,47.21l7-2.57a19,19,0,0,1,14.53.46l21.21,9.55,21.39-1.54c2.81-.26,5.43.34,6.39,2.9a5,5,0,0,1-2.4,6.18L52.3,74.08a8.61,8.61,0,0,1-6.3.59L34.24,70.75a34.15,34.15,0,0,0-13-1.78,13,13,0,0,0-5.66,1.3"/><path class="cls-2" d="M45,48.29l11.29,5.12a5,5,0,0,1-4.12,9.11L37.47,55.88"/><polyline class="cls-2" points="4.5 74.5 15.5 74.5 15.5 44.5 4.5 44.5"/><polyline class="cls-2" points="124 118.93 110.68 116.17 117.21 84.68 124 86.09"/><path class="cls-2" d="M95.91,115.22c-2.28.45-5,1.07-7.77,1.7l-3.1.71a50.26,50.26,0,0,1-10.67,1.54A16.27,16.27,0,0,1,68,118c-1.16-.45-5.4-2.75-9.76-5.24"/><path class="cls-2" d="M48.33,93.41c10-3.47,23.15,8.73,30,4.25a4.55,4.55,0,1,1-4.23-8.06c6.77-3.55,17.86-10,20.24-10.11a27.09,27.09,0,0,1,7.73.71c2.45.5,9.49,5.25,14.69,6.89l-4.54,21.55s-8-1.09-10.82-1.2c-3.41-.14-9.79,1.46-18,3.3-8.66,2-10.91,1.45-12.88.68-1.16-.46-11.81-6.32-17.21-9.81-3.75-2.43-6.65-3-7.24-4.67S46.84,93.93,48.33,93.41Z"/><path class="cls-2" d="M88.25,93.33a94.9,94.9,0,0,0-9.78,4.29,8.56,8.56,0,0,1-3.55,1.12,8.38,8.38,0,0,1-3.4-.46"/><path class="cls-2" d="M29.17,36.92a23.06,23.06,0,0,1-.91-6.42H92.58a22.87,22.87,0,0,1-8.49,17.81"/><line class="cls-3" x1="40.5" x2="87.5" y1="37.5" y2="37.5"/><path class="cls-1" d="M77.65,73.1a1.59,1.59,0,1,0-1.58,1.59A1.58,1.58,0,0,0,77.65,73.1Z"/><path class="cls-1" d="M53.6,108.65a1.59,1.59,0,1,0-1.58,1.6A1.59,1.59,0,0,0,53.6,108.65Z"/></svg>