<?xml version="1.0" ?><svg height="128" id="Icons" viewBox="0 0 128 128" width="128" xmlns="http://www.w3.org/2000/svg"><defs><style>.cls-1,.cls-2{fill:none;stroke:#383838;stroke-linecap:round;stroke-linejoin:round;stroke-width:3px;}.cls-2{stroke-dasharray:3 10;}.cls-3{fill:#383838;}</style></defs><title/><path class="cls-1" d="M58.23,38.05a5,5,0,0,1,2-5.19,8.37,8.37,0,0,0-13.88,1A8.39,8.39,0,0,0,35.2,44.34a8.24,8.24,0,0,0,1.2,2.27c3.24,5.2,16,8.24,16.53,8.37a1.2,1.2,0,0,0,.65,0,1.28,1.28,0,0,0,.53-.37c.28-.35,5.7-7.11,7.43-12.9A5,5,0,0,1,58.23,38.05Z"/><circle class="cls-1" cx="63.56" cy="97.33" r="15.2"/><polyline class="cls-1" points="114.71 36.26 102.19 39.96 92.96 7.02 99.34 5.13"/><path class="cls-1" d="M93.36,10l-4.3.38a38.23,38.23,0,0,1-9.13-.3L68.13,8.27a8.56,8.56,0,0,0-5.68,1.11L50.6,16.46,39.44,31.12A3.86,3.86,0,0,0,39,33.26"/><path class="cls-1" d="M98.91,33.39l-5.24,3.4a20.87,20.87,0,0,1-10.53,3.35l-13.09.52-6.38,1.07a4.48,4.48,0,1,1-1.44-8.85l6.31-1L73,30.13a3.18,3.18,0,0,0,1.94-3.7c-.36-1.5-1.73-2.52-5.33-2.82l-12.16.62-5,5"/><rect class="cls-1" height="56" width="76" x="25.5" y="67.5"/><polyline class="cls-1" points="64.5 50.5 101.5 50.5 101.5 68.83"/><polyline class="cls-1" points="25.5 68.5 25.5 50.5 33.5 50.5"/><line class="cls-1" x1="51.5" x2="76.5" y1="59.5" y2="59.5"/><path class="cls-1" d="M44.55,108.42A22.1,22.1,0,0,1,47.6,82.23"/><path class="cls-1" d="M83.86,88.86a22.2,22.2,0,0,1,1.66,7.86,21.8,21.8,0,0,1-6,15.71c-.21.23-.43.45-.65.66"/><line class="cls-1" x1="63.7" x2="63.65" y1="105.05" y2="106.04"/><line class="cls-1" x1="63.93" x2="63.88" y1="88.87" y2="89.92"/><path class="cls-1" d="M67.49,92.35a4.75,4.75,0,0,0-3.18-1.92c-1.42-.16-3.34.36-4,1.85a3.38,3.38,0,0,0,.27,3.19c1.5,2.26,4.95.86,6.75,3.2a3.72,3.72,0,0,1,.6,3.45c-.65,1.69-2.79,2.22-4,2.25a5.69,5.69,0,0,1-4.32-2.05"/><line class="cls-1" x1="102.5" x2="124.5" y1="105.5" y2="105.5"/><line class="cls-1" x1="4.5" x2="24.5" y1="105.5" y2="105.5"/><line class="cls-1" x1="102.5" x2="119.5" y1="97.5" y2="97.5"/><line class="cls-1" x1="8.5" x2="24.5" y1="97.5" y2="97.5"/><line class="cls-2" x1="29.5" x2="102.5" y1="74.5" y2="74.5"/><path class="cls-3" d="M82.66,83.43A1.58,1.58,0,1,0,81.09,85,1.58,1.58,0,0,0,82.66,83.43Z"/><path class="cls-3" d="M50.29,113.55a1.58,1.58,0,1,0-1.57,1.58A1.57,1.57,0,0,0,50.29,113.55Z"/></svg>