<?xml version="1.0" ?><svg height="128" id="Icons" viewBox="0 0 128 128" width="128" xmlns="http://www.w3.org/2000/svg"><defs><style>.cls-1,.cls-3{fill:none;stroke:#383838;stroke-linecap:round;stroke-linejoin:round;stroke-width:3px;}.cls-2{fill:#383838;}.cls-3{stroke-dasharray:3.09 10.29;}</style></defs><title/><path class="cls-1" d="M46.31,93.11a8.26,8.26,0,0,1-16.51,0c0-4.36,8.25-13.3,8.25-13.3S46.31,88.75,46.31,93.11Z"/><path class="cls-1" d="M59.93,104a54.52,54.52,0,0,1-42.95.88"/><path class="cls-2" d="M28,51.76A1.72,1.72,0,1,0,29.71,50,1.72,1.72,0,0,0,28,51.76Z"/><path class="cls-2" d="M21.88,100.6a1.72,1.72,0,1,0,1.72-1.72A1.72,1.72,0,0,0,21.88,100.6Z"/><path class="cls-1" d="M93.2,9.44q.54.24,1,.51.52-.27,1-.51"/><path class="cls-3" d="M101,9a5,5,0,0,1,2.68-1.37,20.31,20.31,0,0,1,19.43,26.26c-3,12-21,23.79-24.56,26a8.05,8.05,0,0,1-8.57,0c-3.61-2.27-21.6-14.07-24.59-26A20.33,20.33,0,0,1,84.82,7.63a10.7,10.7,0,0,1,3.89,1.16"/><path class="cls-1" d="M110.56,15.49a14.25,14.25,0,0,0-16.31,1.8A14.24,14.24,0,0,0,70.58,28a14,14,0,0,0,.68,4.3c2.35,10.13,21.14,22,21.94,22.52a2,2,0,0,0,2.11,0c.81-.5,19.58-12.39,21.93-22.52a14,14,0,0,0,.67-4.3,14.25,14.25,0,0,0-7.35-12.47Z"/><path class="cls-1" d="M61.42,63.49A20.45,20.45,0,0,0,38,66.08,20.43,20.43,0,0,0,5,87.58c3.38,14.54,30.36,31.62,31.51,32.35a2.86,2.86,0,0,0,3.05,0c1.15-.73,28.11-17.81,31.49-32.35a20,20,0,0,0,1-6.18A20.46,20.46,0,0,0,61.42,63.49Z"/><path class="cls-1" d="M19.11,95.82c-3.37-3.63-5.83-7.14-6.5-10l-.07-.3-.1-.3a12.61,12.61,0,0,1,12-16.41"/><path class="cls-1" d="M37.5,72.5V33.85a9,9,0,1,1,18,0V53.5"/><path class="cls-1" d="M29.5,45.5V34.56c0-8.63,6.38-16.17,15-17a16.71,16.71,0,0,1,4.13.08"/><line class="cls-1" x1="94.5" x2="94.5" y1="78.5" y2="65.5"/><path class="cls-1" d="M61.89,113.1A20,20,0,0,0,94.77,97.81"/><rect class="cls-1" height="18" rx="4.25" ry="4.25" width="10" x="90.5" y="79.5"/><line class="cls-1" x1="95.5" x2="99.5" y1="88.5" y2="88.5"/></svg>