<?xml version="1.0" ?><svg height="128" id="Icons" viewBox="0 0 128 128" width="128" xmlns="http://www.w3.org/2000/svg"><defs><style>.cls-1,.cls-3{fill:none;stroke:#383838;stroke-width:3px;}.cls-1{stroke-linecap:round;stroke-linejoin:round;}.cls-2{fill:#383838;}.cls-3{stroke-miterlimit:10;}</style></defs><title/><path class="cls-1" d="M52.69,21.64a6.92,6.92,0,1,1-4-8.9A6.92,6.92,0,0,1,52.69,21.64Z"/><path class="cls-1" d="M36.32,44.5a3.47,3.47,0,0,0,.23-1.21,3.64,3.64,0,0,0-3.63-3.62,7.24,7.24,0,0,0-14.27-1.78,5.8,5.8,0,0,0-5-.12,6,6,0,0,0-3.52,6.73Z"/><path class="cls-1" d="M98.69,23.5a3.47,3.47,0,0,0,.23-1.21,3.64,3.64,0,0,0-3.63-3.62A7.24,7.24,0,0,0,81,16.89a5.8,5.8,0,0,0-5-.12,6,6,0,0,0-3.52,6.73Z"/><path class="cls-2" d="M109.33,119a1.41,1.41,0,1,0,1.41,1.41A1.41,1.41,0,0,0,109.33,119Z"/><line class="cls-1" x1="50.4" x2="51.29" y1="8.52" y2="6.15"/><line class="cls-1" x1="41.67" x2="40.62" y1="8.82" y2="6.51"/><line class="cls-1" x1="35.53" x2="33.15" y1="15.2" y2="14.31"/><line class="cls-1" x1="35.82" x2="33.51" y1="23.93" y2="24.98"/><line class="cls-1" x1="42.21" x2="41.32" y1="29.9" y2="32.27"/><line class="cls-1" x1="50.94" x2="51.99" y1="29.6" y2="31.91"/><line class="cls-1" x1="56.9" x2="59.28" y1="23.22" y2="24.11"/><line class="cls-1" x1="56.61" x2="58.91" y1="14.49" y2="13.44"/><line class="cls-1" x1="63.5" x2="63.5" y1="107.5" y2="56.5"/><path class="cls-1" d="M69.1,47c0,5.13-5.16,9.28-5.16,9.28S58.79,52.16,58.79,47s5.15-9.28,5.15-9.28S69.1,41.91,69.1,47Z"/><line class="cls-1" x1="64.34" x2="77.3" y1="72.12" y2="59.2"/><line class="cls-1" x1="72.38" x2="75.95" y1="64.11" y2="67.68"/><line class="cls-1" x1="90.5" x2="90.5" y1="107.5" y2="56.5"/><path class="cls-1" d="M96.08,47c0,5.13-5.15,9.28-5.15,9.28S85.77,52.16,85.77,47s5.16-9.28,5.16-9.28S96.08,41.91,96.08,47Z"/><line class="cls-1" x1="91.33" x2="104.29" y1="72.12" y2="59.2"/><line class="cls-1" x1="90.26" x2="73.49" y1="93.87" y2="77.1"/><line class="cls-1" x1="99.37" x2="102.94" y1="64.11" y2="67.68"/><line class="cls-1" x1="81.29" x2="77.98" y1="76.95" y2="80.26"/><line class="cls-1" x1="118.5" x2="118.5" y1="107.5" y2="56.5"/><path class="cls-1" d="M123.25,47c0,5.13-5.15,9.28-5.15,9.28s-5.16-4.15-5.16-9.28,5.16-9.28,5.16-9.28S123.25,41.91,123.25,47Z"/><line class="cls-1" x1="118" x2="100.65" y1="94.45" y2="77.1"/><line class="cls-1" x1="108.46" x2="105.14" y1="76.95" y2="80.26"/><path class="cls-1" d="M73.82,113.68a29.09,29.09,0,0,0-34.09-.18H7.5"/><path class="cls-1" d="M108,114a29.09,29.09,0,0,0-34.09-.18"/><path class="cls-1" d="M108.35,113.79a29,29,0,0,1,15.65-5.4"/><polyline class="cls-1" points="20.63 112.38 25.21 68.5 52.69 68.5 57.03 107.96"/><path class="cls-3" d="M46.61,93.67a6.8,6.8,0,0,1-13.59,0c0-3.58,6.79-11,6.79-11S46.61,90.09,46.61,93.67Z"/><polyline class="cls-1" points="20.07 112.07 4 68.5 9.1 68.5 22.99 84.33"/><path class="cls-1" d="M31.5,68.5V62.77a7.5,7.5,0,0,1,15,0V68.5"/><line class="cls-1" x1="22.5" x2="101.5" y1="120.5" y2="120.5"/><path class="cls-1" d="M46.61,93.67a6.8,6.8,0,0,1-13.59,0c0-3.58,6.79-11,6.79-11S46.61,90.09,46.61,93.67Z"/></svg>