<?xml version="1.0" ?><svg height="128" id="Icons" viewBox="0 0 128 128" width="128" xmlns="http://www.w3.org/2000/svg"><defs><style>.cls-1{fill:none;stroke:#383838;stroke-linecap:round;stroke-linejoin:round;stroke-width:3px;}.cls-2{fill:#383838;}</style></defs><title/><circle class="cls-1" cx="62.5" cy="100.5" r="13.5"/><circle class="cls-1" cx="62" cy="24" r="19.5"/><path class="cls-1" d="M62,44.47a29.14,29.14,0,0,1-3.87-.26l-.53,5.29h9.73l-.53-5.58A21.09,21.09,0,0,1,62,44.47Z"/><path class="cls-1" d="M89,53.47a29.14,29.14,0,0,0,3.87-.26l.53,5.29H83.65l.53-5.58A21.09,21.09,0,0,0,89,53.47Z"/><path class="cls-1" d="M85.72,14.18A20.58,20.58,0,0,1,89,13.91a19.75,19.75,0,1,1-14.4,33.25"/><path class="cls-1" d="M21.45,99.21a6.43,6.43,0,0,0-2.77-.62,6.56,6.56,0,0,0-6.34,4.94,5.23,5.23,0,0,0-4.51-.13,5.47,5.47,0,0,0-3.12,3.46,5.54,5.54,0,0,0-.11,2.64H21.5"/><path class="cls-1" d="M104.84,85.38a6.49,6.49,0,0,1,4.48-1.79,6.56,6.56,0,0,1,6.34,4.94,5.23,5.23,0,0,1,4.51-.13,5.47,5.47,0,0,1,3.12,3.46,5.54,5.54,0,0,1,.11,2.64H104.5"/><path class="cls-1" d="M35.71,53.47a29.17,29.17,0,0,1-3.88-.26L31.3,58.5H42l-.53-5.58A40.59,40.59,0,0,1,35.71,53.47Z"/><path class="cls-1" d="M39,14.18a20.58,20.58,0,0,0-3.26-.27A19.75,19.75,0,1,0,51.07,46.06"/><line class="cls-1" x1="88.5" x2="88.5" y1="58.94" y2="75.5"/><path class="cls-1" d="M85.67,47.22a14.25,14.25,0,0,0,3.59.46,14.06,14.06,0,0,0,13.49-10.19"/><path class="cls-2" d="M101.76,31.78a1.54,1.54,0,1,1,1.53,1.55A1.54,1.54,0,0,1,101.76,31.78Z"/><line class="cls-1" x1="62.5" x2="62.5" y1="50.5" y2="65.5"/><path class="cls-1" d="M47.38,115.15a20.92,20.92,0,0,1,.07-29.07"/><path class="cls-1" d="M77,85.53a20.93,20.93,0,0,1,.31,29.94"/><line class="cls-1" x1="62.5" x2="62.5" y1="94.5" y2="106.5"/><line class="cls-1" x1="56.5" x2="68.5" y1="100.5" y2="100.5"/><polyline class="cls-1" points="48.5 70.5 48.5 66.5 76.5 66.5 76.5 70.5"/><path class="cls-1" d="M42.93,19.91c4.87,0,4.5,3.31,9.37,3.31S57.17,19.9,62,19.9s4.87,3.32,9.74,3.32,4.41-3.32,9.29-3.32"/><path class="cls-1" d="M42.87,27.78c4.87,0,4.56,3.32,9.43,3.32s4.87-3.32,9.74-3.32,4.87,3.32,9.74,3.32"/><line class="cls-1" x1="36.5" x2="36.5" y1="58.5" y2="75.5"/><polygon class="cls-1" points="72.49 75.5 70.98 80.5 54.09 80.5 52.51 75.5 25.5 75.5 25.5 123.5 100.5 123.5 100.5 75.5 72.49 75.5"/><polyline class="cls-1" points="91.5 76.5 91.5 84.5 100.5 84.5"/><polyline class="cls-1" points="25.5 84.5 34.5 84.5 34.5 76.5"/><polyline class="cls-1" points="34.5 123.5 34.5 114.5 25.5 114.5"/><polyline class="cls-1" points="100.5 114.5 91.5 114.5 91.5 123.5"/><path class="cls-1" d="M39,47.22a14.06,14.06,0,0,1-17.08-9.73"/><path class="cls-2" d="M22.92,31.78a1.54,1.54,0,1,0-1.53,1.55A1.53,1.53,0,0,0,22.92,31.78Z"/></svg>