<?xml version="1.0" ?><svg height="128" id="Icons" viewBox="0 0 128 128" width="128" xmlns="http://www.w3.org/2000/svg"><defs><style>.cls-1{fill:#383838;}.cls-2{fill:none;stroke:#383838;stroke-linecap:round;stroke-linejoin:round;stroke-width:3px;}</style></defs><title/><path class="cls-1" d="M31.68,46.24C32,45,33,44.09,33.86,44.3S35.25,45.73,35,47,33.66,49.17,32.76,49,31.37,47.53,31.68,46.24Zm-3.22-2c.92-.06,1.75.95,1.84,2.27S29.72,49,28.79,49,27,48.07,27,46.75,27.53,44.31,28.46,44.24Zm-4.3,3.47c.76-.32,1.75.31,2.2,1.41s.19,2.23-.58,2.55-1.75-.32-2.2-1.41S23.39,48,24.16,47.71ZM38.28,50.4c-.56,1-1.59,1.56-2.32,1.17A1.9,1.9,0,0,1,35.64,49c.56-1,1.59-1.56,2.32-1.18S38.83,49.36,38.28,50.4Z"/><path class="cls-2" d="M94.86,20a5.19,5.19,0,0,0-6,.66,5.22,5.22,0,0,0-8.67,3.9,5.27,5.27,0,0,0,.25,1.58c.86,3.7,7.74,8,8,8.24a.77.77,0,0,0,.39.11.79.79,0,0,0,.39-.11c.29-.19,7.16-4.54,8-8.24a5.27,5.27,0,0,0,.25-1.58A5.21,5.21,0,0,0,94.86,20Z"/><path class="cls-2" d="M34.21,60.06a2.2,2.2,0,0,1-1.29.23,4,4,0,0,1-2.26-1,3.94,3.94,0,0,1-2.27,1,2.21,2.21,0,0,1-1.27-.22,3.12,3.12,0,0,1-1.6-2.71,3,3,0,0,1,.15-.94c.51-2.2,4.59-4.78,4.76-4.89a.41.41,0,0,1,.46,0c.18.11,4.26,2.69,4.77,4.89a3,3,0,0,1,.15.94A3.1,3.1,0,0,1,34.21,60.06Z"/><path class="cls-2" d="M52.22,34.56a19.64,19.64,0,0,1,5.1,10.92"/><path class="cls-2" d="M18.5,74.5v7H14.42a2.81,2.81,0,0,1-2.92-2.66v-31c0-5.81,4.46-10.71,10.41-12a14.58,14.58,0,0,0,18.18,0c5.95,1.33,9.61,4.59,10.41,12v8.7"/><path class="cls-2" d="M20.5,20.5v.63a5.33,5.33,0,0,0,0,.57c.25,6.6,4.91,11.85,10.62,11.85,5,0,9.92-5.14,10.12-11.9"/><line class="cls-2" x1="18.5" x2="18.5" y1="100.5" y2="74.5"/><line class="cls-2" x1="43.5" x2="43.5" y1="51.5" y2="74.5"/><line class="cls-2" x1="18.5" x2="18.5" y1="51.5" y2="76.5"/><line class="cls-2" x1="31.5" x2="31.5" y1="81.5" y2="93.5"/><line class="cls-2" x1="43.5" x2="11.5" y1="74.5" y2="74.5"/><path class="cls-2" d="M41.82,21.05l.82-2.66C45,8.92,36.81,4,31.82,4a10.77,10.77,0,0,0-8,4c-3.9.45-6.29,4-5.28,8.91l2.21,6.91"/><path class="cls-2" d="M29.79,19.71A30.68,30.68,0,0,1,23.37,16L20.7,22.63"/><path class="cls-2" d="M29.7,14.09s3.74,2.5,6.44,4S41.72,21,41.72,21"/><path class="cls-1" d="M87.84,71a1.4,1.4,0,0,0-1.42-1.4A1.41,1.41,0,1,0,87.84,71Z"/><path class="cls-1" d="M49.19,31.14a1.41,1.41,0,1,0-1.4,1.42A1.42,1.42,0,0,0,49.19,31.14Z"/><line class="cls-2" x1="93.34" x2="94.41" y1="12.51" y2="9.65"/><line class="cls-2" x1="82.82" x2="81.56" y1="12.87" y2="10.09"/><line class="cls-2" x1="75.43" x2="72.57" y1="20.55" y2="19.48"/><line class="cls-2" x1="75.79" x2="73.01" y1="31.07" y2="32.33"/><line class="cls-2" x1="83.48" x2="82.4" y1="38.25" y2="41.11"/><line class="cls-2" x1="93.99" x2="95.26" y1="37.89" y2="40.68"/><line class="cls-2" x1="101.17" x2="104.03" y1="30.21" y2="31.28"/><line class="cls-2" x1="100.82" x2="103.6" y1="19.69" y2="18.43"/><line class="cls-2" x1="39.67" x2="46.91" y1="93.68" y2="96.22"/><path class="cls-2" d="M49.46,123.78c-.24-1.72-2.94-2.64-2.94-2.64s-.55-11.59-.16-12.27c.49-.86,2.64-3.35,2.33-5s-2-5.19-.86-8.73a4.23,4.23,0,0,1,3.28-3,3.27,3.27,0,0,0,2.26-1.81l.75-1.6L47.93,84.8l-2.58-4.73a9.27,9.27,0,0,1-2.41,4.83c-3.81,3.57-1.65,6.8-4.2,9.35s-10.57,8.22-11.84,11.19c-1.63,3.8-1.87,15.46-2.13,16.38-.85,3-4.84,2.05-5.21.08-.24-1.29-.59-21.58-8.25-21.51"/><line class="cls-2" x1="41.5" x2="29.5" y1="124.5" y2="124.5"/><path class="cls-2" d="M76.44,69.3c-4.21,5.08-11.28,5.62-11.28,5.62"/><path class="cls-2" d="M91,76.34c4.65,6,10.22,13.63,11.89,17.52,1.78,4.18,2.88,10,3.85,15.13"/><path class="cls-2" d="M76.37,66.38c1.1,3,1.24,3.9,2.65,5.62,2.9,3.56,15.48,19.29,17.72,24.5,2.85,6.65,4,20.2,5.88,23.51,3.44,5.93,11.65,4.58,13.39,1.12.66-1.32,1.48-4.46-1-6.32"/><path class="cls-2" d="M64.69,53.83l1.77,3.72s-.19,7.83,2,9.46A6.1,6.1,0,0,0,76,67s3.47-6.16-3.36-13.09a7.39,7.39,0,0,0-4.4-2.22A9,9,0,0,0,62,53.45,19.08,19.08,0,0,0,59.34,56a28.88,28.88,0,0,1-3.41,3.59c-2,.86-7.86,2.33-8,3.1-.26,1,.87,3.23,1.82,4.81a3.72,3.72,0,0,0,3.1,1.82c3.11.1,9,.71,10.69,3.84,3,5.62-1.05,14.72-.76,18.74.22,3,3.24,8.38,4.1,9.88.68,1.18.17,16.65.17,16.65l-1.58.42a5.83,5.83,0,0,0-4.36,5.65H69.5"/><line class="cls-2" x1="81.5" x2="99.5" y1="124.5" y2="124.5"/><path class="cls-2" d="M89.5,106.14c-4.65,1.11-8.52,7-7,14"/><path class="cls-2" d="M80.38,118.43l-1.58.42a5.83,5.83,0,0,0-4.36,5.65H82.5"/><path class="cls-2" d="M74.34,97.14a13.36,13.36,0,0,1,4.59,6.63c1.16,4.19-.64,8,2.5,12.84"/><path class="cls-2" d="M32,112.16c4,1.08,5.37,4.2,5.53,7.92,0,0,4,.7,4.33,4.42"/></svg>