<?xml version="1.0" ?><svg height="128" id="Icons" viewBox="0 0 128 128" width="128" xmlns="http://www.w3.org/2000/svg"><defs><style>.cls-1{fill:none;stroke:#383838;stroke-linecap:round;stroke-linejoin:round;stroke-width:3px;}.cls-2{fill:#383838;}</style></defs><title/><path class="cls-1" d="M27.1,107.92A7.77,7.77,0,0,0,20,104.31a13.43,13.43,0,0,0-4.6.84"/><path class="cls-1" d="M17.79,100.57a10.07,10.07,0,0,1,4.89,1.37,10.41,10.41,0,0,1,4.42,6,12.13,12.13,0,0,1-5.24,3.83,12.52,12.52,0,0,1-8.61-.09,14.16,14.16,0,0,1-7.5-6.38C7.24,104,11.86,100.23,17.79,100.57Z"/><path class="cls-1" d="M14.62,85.58c3.85,3.39,3.35,10,3.35,10s-6.74,1.16-10.6-2.23S4,83.34,4,83.34,10.77,82.18,14.62,85.58Z"/><path class="cls-1" d="M21,100.28a33.5,33.5,0,0,0-10-10.8"/><path class="cls-2" d="M119.88,113a1.34,1.34,0,1,0,1.34,1.33A1.33,1.33,0,0,0,119.88,113Z"/><path class="cls-2" d="M122.66,71.42A1.34,1.34,0,1,0,124,72.75,1.34,1.34,0,0,0,122.66,71.42Z"/><path class="cls-2" d="M33.77,26.49a1.34,1.34,0,1,0,1.33,1.33A1.33,1.33,0,0,0,33.77,26.49Z"/><path class="cls-1" d="M79.53,20.5a15.13,15.13,0,0,1-.8,4.92,14.73,14.73,0,0,1-1.4,3"/><path class="cls-1" d="M84.86,12.5H67.38a2.89,2.89,0,0,0-2.88,2.88V16.5h-10a3.38,3.38,0,0,0-3.11,1.92,3.52,3.52,0,0,0,3.14,5.08h22a2.74,2.74,0,0,0,2.76-2.23,2.61,2.61,0,0,0-1.57-2.77h7.14a2.93,2.93,0,0,0,2.67-1.6A3,3,0,0,0,84.86,12.5Z"/><path class="cls-1" d="M64.93,15.49a30.72,30.72,0,0,0,.27,4.08c.15,1.12.35,2.15.57,3.08"/><path class="cls-1" d="M51,20.07c.25,2.1,2.07,5.75,4.45,9.58a29.76,29.76,0,0,0,6,6.85"/><path class="cls-1" d="M65.34,77.56l-6.84-4,5.14-8.8a4.65,4.65,0,0,1,4-2.3H75a4.64,4.64,0,0,1,4,2.25l2.54,4.46,2.22-1.08-2.56,8.23-8.48-1.93,2.1-1.14-3.49-6.42Z"/><path class="cls-1" d="M70.19,68.85s3-6.35,5.12-6.35"/><path class="cls-1" d="M82.09,82.24,89,78.4l4.92,8.92a4.62,4.62,0,0,1-.08,4.62l-3.75,6.29a4.66,4.66,0,0,1-4,2.27l-4.91,0L81,103l-5.43-6.51,5.67-6.2-.09,2.39,7.07.17Z"/><path class="cls-1" d="M87.36,91.35s3.81,5.07,2.73,6.88"/><path class="cls-1" d="M67.17,95.92,65,103.52l-9.79-2.83A4.62,4.62,0,0,1,52,97.37l-1.8-7.11a4.64,4.64,0,0,1,1.21-4.41l3.46-3.48-1.59-1.89,8.44.77.37,8.39-1.62-1.76-5.12,4.89Z"/><path class="cls-1" d="M57,93.21s-6.28-.9-6.8-2.95"/><path class="cls-1" d="M61.5,36.5v3.16a22.66,22.66,0,0,1-8.58,17.52C45,63.62,38.69,70.3,36,79.63c-2.22,7.68-1.23,18,3.89,24.44,5.44,6.81,15.53,10.43,24.77,10.43H71.5"/><path class="cls-1" d="M87.85,15.5a32.64,32.64,0,0,1-2.79,12.11,46.82,46.82,0,0,1-4,7.29l-.61,1.33v3.43A22.72,22.72,0,0,0,89,57.18c7.82,6.44,14.13,13.12,16.81,22.45,2.21,7.68,1.23,18-3.86,24.44-5.4,6.81-15.41,10.43-24.58,10.43H70.5"/><path class="cls-1" d="M105.35,34.05a50.33,50.33,0,0,1-3.85,7.26V43a15.24,15.24,0,0,0,5.76,11.7,64.85,64.85,0,0,1,12.93,13.53"/><path class="cls-1" d="M36.65,34.05a50.33,50.33,0,0,0,3.85,7.26V43a15.24,15.24,0,0,1-5.76,11.7A64.85,64.85,0,0,0,21.81,68.27"/><path class="cls-1" d="M103.07,20.5c-.17,3.09-1.07,5.87-3.21,11a45.94,45.94,0,0,1-3.78,7l-.58,1.26V43a21.71,21.71,0,0,0,8.14,16.74c7.47,6.15,13.5,12.54,16.07,21.46,2.11,7.33,1.17,17.2-3.69,23.34-5.16,6.52-14.73,10-23.49,10h-6"/><path class="cls-1" d="M55.5,114.5h-6c-8.76,0-18.33-3.45-23.49-10-4.86-6.14-5.8-16-3.69-23.34,2.57-8.92,8.6-15.31,16.07-21.46A21.71,21.71,0,0,0,46.5,43V39.71l-.58-1.26c-5.42-7.51-7.16-14.86-7.33-18"/><line class="cls-1" x1="68.5" x2="68.5" y1="38.5" y2="50.5"/><line class="cls-1" x1="73.5" x2="73.5" y1="38.5" y2="44.5"/><line class="cls-1" x1="61.5" x2="79.5" y1="36.5" y2="36.5"/><line class="cls-1" x1="77.5" x2="115.5" y1="114.5" y2="114.5"/><line class="cls-1" x1="49.5" x2="63.5" y1="114.5" y2="114.5"/><path class="cls-1" d="M48.5,15.5H43.07a4.5,4.5,0,0,0,0,9H48.5"/><path class="cls-1" d="M92.5,24.5h6.07a4.5,4.5,0,0,0,0-9H92.5"/><line class="cls-1" x1="46.5" x2="55.5" y1="39.5" y2="39.5"/><line class="cls-1" x1="84.5" x2="95.5" y1="39.5" y2="39.5"/></svg>