<?xml version="1.0" ?><svg height="128" id="Icons" viewBox="0 0 128 128" width="128" xmlns="http://www.w3.org/2000/svg"><defs><style>.cls-1,.cls-3{fill:none;stroke:#383838;stroke-linecap:round;stroke-linejoin:round;stroke-width:3px;}.cls-2{fill:#383838;}.cls-3{stroke-dasharray:3 10;}</style></defs><title/><path class="cls-1" d="M25,44.94a6.15,6.15,0,0,0-3-.76A6.09,6.09,0,0,0,18,45.72a6.13,6.13,0,0,0-9.91,6.44c1,4.36,9.11,9.48,9.45,9.7A.84.84,0,0,0,18,62a.81.81,0,0,0,.45-.13c.35-.22,8.43-5.34,9.45-9.7A6.12,6.12,0,0,0,25,44.94Z"/><path class="cls-1" d="M61.13,16.16a8.79,8.79,0,0,0-4.23-1.09,8.7,8.7,0,0,0-5.79,2.2,8.76,8.76,0,0,0-5.8-2.2A8.75,8.75,0,0,0,37,26.47C38.42,32.69,50,40,50.46,40.31a1.17,1.17,0,0,0,.65.19,1.2,1.2,0,0,0,.65-.19c.49-.31,12-7.62,13.48-13.84a8.75,8.75,0,0,0-4.11-10.31Z"/><path class="cls-1" d="M101.32,9.85a4.54,4.54,0,0,0-5.21.57,4.52,4.52,0,0,0-3-1.14,4.56,4.56,0,0,0-4.55,4.55,4.33,4.33,0,0,0,.22,1.38c.75,3.23,6.75,7,7,7.19a.61.61,0,0,0,.67,0c.26-.16,6.26-4,7-7.19a4.62,4.62,0,0,0,.21-1.38,4.55,4.55,0,0,0-2.35-4Z"/><path class="cls-1" d="M51.33,11.39A10.17,10.17,0,0,0,34.81,6.55,10.18,10.18,0,0,0,17.9,14.17a10.42,10.42,0,0,0,.48,3.08C20.07,24.48,33.49,33,34.06,33.34"/><path class="cls-2" d="M109.57,90.14a1.54,1.54,0,0,0-3.08,0,1.54,1.54,0,1,0,3.08,0Z"/><path class="cls-1" d="M45.5,89.5V70.93a3,3,0,0,0-6,0V88.5"/><path class="cls-1" d="M39.5,88.5v-22a3,3,0,0,0-6,0v23"/><path class="cls-1" d="M33.5,89.5V70.83a3,3,0,0,0-6,0V92.5"/><path class="cls-1" d="M27.5,89.5v2.71a2.73,2.73,0,0,1-4.23,2.27l-.13-.11a13.52,13.52,0,0,1-2.27-2.56l-1.38-2A3.84,3.84,0,0,0,18,88.44l-.45-.24a3.87,3.87,0,0,0-4.65.82l4.76,8.75L20.77,103a19.14,19.14,0,0,0,2,2.3L24,106.44a12.28,12.28,0,0,0,7.06,3.06H32.5"/><path class="cls-1" d="M46.56,111a115.18,115.18,0,0,0,.85,12.84"/><path class="cls-1" d="M32,111a115.2,115.2,0,0,1-.85,12.85"/><path class="cls-1" d="M45.5,89.5V76.4a3,3,0,0,1,6,0v28.15a5.64,5.64,0,0,1-5.86,5.39"/><path class="cls-1" d="M37.82,102.91a6.9,6.9,0,0,0-.28-2,7,7,0,0,0-6.22-5.06"/><path class="cls-1" d="M46.37,90.65c-2.71-1.73-9.92-2.11-13.23-.38"/><path class="cls-1" d="M77.5,40.5V19.13a3.5,3.5,0,1,0-7,0V40.5"/><line class="cls-1" x1="62.5" x2="62.5" y1="31.32" y2="41.5"/><path class="cls-1" d="M70.5,40.5v-27a3.5,3.5,0,1,0-7,0v4.29"/><path class="cls-1" d="M55.5,44.5v2.71a3.68,3.68,0,0,1-5.7,3.07l-.17-.16a18.21,18.21,0,0,1-3.06-3.44L44.71,44a5.22,5.22,0,0,0-2-1.82l-.62-.32a5.18,5.18,0,0,0-6.25,1.1L42.28,54.7l4.15,7.09a26.62,26.62,0,0,0,2.71,3.1l1.67,1.48a16.51,16.51,0,0,0,9.5,4.13H62.5"/><path class="cls-1" d="M79.14,71.71c0,19,3.29,32.3,3.29,51.82"/><path class="cls-1" d="M59.54,71.71c0,19-3.28,32.3-3.28,51.82"/><path class="cls-1" d="M77.5,42.5V26.29a3.5,3.5,0,1,1,7,0V62a6.84,6.84,0,0,1-6.84,6.84"/><path class="cls-1" d="M67.36,60.79a9.41,9.41,0,0,0-8.74-9.57"/><path class="cls-1" d="M78.89,44.27c-3.65-2.33-13.37-2.84-17.83-.51"/><path class="cls-1" d="M84.5,39.58a3,3,0,0,1,2.94-3.1,3.06,3.06,0,0,1,3.06,3.06v19"/><path class="cls-1" d="M90.5,58.5V35a3,3,0,0,1,6,0V58.5"/><path class="cls-1" d="M96.5,58.5V39.73a3,3,0,1,1,6,0V60.5"/><path class="cls-1" d="M102.5,60.5v2.82c0,2.41,3.68,3.85,5.69,2.52l.15-.12a15.08,15.08,0,0,0,2.51-2.84l1.54-2.24a4.32,4.32,0,0,1,1.62-1.5l.51-.26a4.27,4.27,0,0,1,5.15.91l-5.28,9.7L111,75.33a22.5,22.5,0,0,1-2.23,2.55l-1.37,1.22a13.62,13.62,0,0,1-7.83,3.4h-2"/><path class="cls-1" d="M84.68,82.52c0,6.21,0,11.48-.54,17.34"/><path class="cls-1" d="M107.74,97c.19,2,.4,4.08.61,6.15.66,6.3,1.33,12.81,1.41,20.74"/><path class="cls-1" d="M99.77,83.31c0,15.23,2.55,25.21,2.7,40.69"/><path class="cls-1" d="M79.71,79.92a6.63,6.63,0,0,0,4.85,2.2"/><path class="cls-1" d="M93.33,74.32a7.49,7.49,0,0,1,.3-2.28,7.75,7.75,0,0,1,4.88-5.18"/><path class="cls-1" d="M85.08,59.9c2.7-.95,9.77-1.52,13.44.4"/><line class="cls-3" x1="69.5" x2="69.5" y1="85.5" y2="119.5"/></svg>