<?xml version="1.0" ?><svg height="128" id="Icons" viewBox="0 0 128 128" width="128" xmlns="http://www.w3.org/2000/svg"><defs><style>.cls-1{fill:none;stroke:#383838;stroke-linecap:round;stroke-linejoin:round;stroke-width:3px;}.cls-2{fill:#383838;}</style></defs><title/><path class="cls-1" d="M46.59,72a14.43,14.43,0,0,0-10.08-6s.07,7.55.07,7.55L28,69.43l-8.5,4.29-.08-7.55A19.12,19.12,0,0,0,4,83.79a38.17,38.17,0,0,0,24.23,8.42c1.88,0,3.77-.17,5.42-.35"/><path class="cls-1" d="M81.82,72.5A15.5,15.5,0,0,1,91.49,67s-.07,7.55-.07,7.55L100,70.45l8.5,4.29.08-7.55A19.13,19.13,0,0,1,124,84.82a38.11,38.11,0,0,1-24.23,8.41,62.45,62.45,0,0,1-7.16-.55"/><line class="cls-1" x1="34.5" x2="31.5" y1="47.5" y2="47.53"/><line class="cls-1" x1="23.5" x2="20.5" y1="47.5" y2="47.53"/><path class="cls-1" d="M31,57.43a6.1,6.1,0,0,1-3.63,1.39,6.13,6.13,0,0,1-3.67-1.31"/><line class="cls-1" x1="12.5" x2="12.43" y1="88.5" y2="82.5"/><path class="cls-1" d="M44.81,37.7a21.6,21.6,0,0,0-7.27-9.6,18,18,0,0,0-8.94-3.25,16,16,0,0,0-2.56,0,18.05,18.05,0,0,0-8.88,3.42c-10.64,8-9.49,24.87-9.36,26.43a36.87,36.87,0,0,0,4.37,14.54"/><path class="cls-1" d="M43.81,68.5a23,23,0,0,0,2.45-10.19"/><path class="cls-1" d="M18.09,38.3a3.42,3.42,0,0,1-.18-.44A18.53,18.53,0,0,0,14.8,48.54,16,16,0,0,0,17.28,57c2.15,3.31,6.24,6.79,10.44,6.91,4.19-.2,8.21-3.77,10.29-7.12a16,16,0,0,0,2.31-8.54A18.64,18.64,0,0,0,37,37.67a4.48,4.48,0,0,1-.32.72,7.93,7.93,0,0,1-6.89,4.11l-4.52.06A7.87,7.87,0,0,1,18.09,38.3Z"/><path class="cls-1" d="M48,36c-.2.77-1.16,5.92.88,9.79a10.67,10.67,0,0,0,1.65,2.31c.06.08.13.14.19.21a21,21,0,0,1,.78-5.91A21.52,21.52,0,0,1,52.72,39c3.13.66,5.75,3.19,10.78,3.19S71.15,39.68,74.28,39a21.52,21.52,0,0,1,1.25,3.4,21,21,0,0,1,.78,5.91l.19-.2a11,11,0,0,0,1.65-2.32c2-3.87,1.08-9,.88-9.79C74.92,20.44,51.85,21.32,48,36Z"/><path class="cls-1" d="M87.91,52.23C89.1,60.08,94.29,66,100.52,66S112,60.08,113.13,52.23"/><path class="cls-1" d="M94.37,50.92a2.24,2.24,0,0,1,2.94,0"/><path class="cls-1" d="M104.11,50.92a2.09,2.09,0,0,1,2.93,0"/><path class="cls-1" d="M97.21,59.76a5.1,5.1,0,0,0,6.62,0"/><path class="cls-1" d="M87.93,52.23c-.21-1.08-1.61-.67-2.22-3.2-.89-3.71.92-4.28,2-3.54"/><path class="cls-1" d="M113.18,52.23c.21-1.08,1.61-.67,2.22-3.2.89-3.71-.92-4.28-2-3.54"/><path class="cls-1" d="M90.65,59.59a3.32,3.32,0,0,1-5.87-1,2.11,2.11,0,0,1-2-1.42"/><path class="cls-1" d="M110.89,59.91a3.31,3.31,0,0,0,5.59-1.31,3.46,3.46,0,0,0,3-3.42,3.5,3.5,0,0,0-.36-1.51,3.46,3.46,0,0,0,1.71-6.33,3.46,3.46,0,0,0,1.29-6.51,3.46,3.46,0,0,0-2.08-6.17c-.11,0-.22,0-.34,0a3.42,3.42,0,0,0,.89-2.3,3.47,3.47,0,0,0-3.39-3.47,3.33,3.33,0,0,0-1.63.47,3.51,3.51,0,0,0,.52-1.82,3.48,3.48,0,0,0-3.39-3.47,3.43,3.43,0,0,0-2.25.92V25a3.36,3.36,0,0,0-6.29-1.74s0-.08,0-.13a3.47,3.47,0,0,0-3.39-3.47h-.34a3.47,3.47,0,0,0-3.39,3.47c0,.05,0,.09,0,.13A3.36,3.36,0,0,0,90.79,25s0,.06,0,.08a3.4,3.4,0,0,0-5.12,4.37A3.4,3.4,0,0,0,84,28.93a3.47,3.47,0,0,0-2.85,1.6"/><path class="cls-1" d="M49,53.48c-.25-1.28-1.91-.79-2.64-3.8-1.06-4.41,1.09-5.08,2.34-4.21"/><path class="cls-1" d="M79.05,53.48c.25-1.28,1.91-.79,2.64-3.8,1.06-4.41-1.81-5.82-3.06-5"/><path class="cls-1" d="M49,53.48c1.41,9.35,7.6,16.4,15,16.4s13.6-7,15-16.4"/><line class="cls-1" x1="57.5" x2="60.5" y1="51.5" y2="51.5"/><line class="cls-1" x1="68.5" x2="71.5" y1="51.5" y2="51.5"/><path class="cls-1" d="M60.1,62.44a6.08,6.08,0,0,0,7.88,0"/><line class="cls-1" x1="45.5" x2="45.5" y1="98.5" y2="88.5"/><line class="cls-1" x1="82.5" x2="82.5" y1="98.5" y2="88.5"/><polyline class="cls-1" points="64.01 74.23 73.96 79.42 74.75 70.5"/><polyline class="cls-1" points="64.01 74.23 53.87 79.42 53.04 70.22"/><path class="cls-1" d="M34.27,99.55a52.24,52.24,0,0,0,56.52,1"/><circle class="cls-2" cx="94.04" cy="98.13" r="1.41"/><path class="cls-1" d="M88.06,45.46a4.55,4.55,0,0,0,1.85-1.94A4.7,4.7,0,0,0,90.13,40a3.89,3.89,0,0,0,2.7-.53A4.18,4.18,0,0,0,94.51,36,4.39,4.39,0,0,0,97,37.63a4.63,4.63,0,0,0,3.83-1.09,3.24,3.24,0,0,0,6.13-.92,4.59,4.59,0,0,0,2.22,3.57,4.25,4.25,0,0,0,2.92.35,5.2,5.2,0,0,0-.18,4.64,4.27,4.27,0,0,0,1.19,1.33"/><path class="cls-1" d="M34,91.3A23,23,0,0,1,52.9,70.22"/><path class="cls-1" d="M74.75,70.5A22.84,22.84,0,0,1,93.6,91.26,45.08,45.08,0,0,1,63.83,102.5h-.1a45.15,45.15,0,0,1-29.61-11"/></svg>