<?xml version="1.0" ?><svg height="128" id="Icons" viewBox="0 0 128 128" width="128" xmlns="http://www.w3.org/2000/svg"><defs><style>.cls-1{fill:none;stroke:#383838;stroke-linecap:round;stroke-linejoin:round;stroke-width:3px;}.cls-2{fill:#383838;}</style></defs><title/><circle class="cls-1" cx="74.28" cy="71.75" r="11.04" transform="translate(-25.7 45.87) rotate(-29.49)"/><path class="cls-1" d="M43.75,117c-1.12.06-2.26.09-3.41.09A87.24,87.24,0,0,1,4,108.92"/><path class="cls-1" d="M59.27,71.69a25.88,25.88,0,0,0-8.2-3.62c-.31,1.64.33,5.48-2.94,9-2.66,2.86-7.22-3.53-8.77-3a1.92,1.92,0,0,1-.29-.14l-.29.14c-1.56-.55-6.11,5.84-8.79,3-3.25-3.48-2.61-7.32-2.93-9a25.31,25.31,0,0,0-9.27,4.4c-12.35,9.42-11,27.34-10.68,30.35a80.44,80.44,0,0,0,33.23,7.4,53,53,0,0,0,13.31-1.64"/><line class="cls-1" x1="71.5" x2="77.5" y1="46.5" y2="46.59"/><line class="cls-1" x1="105.5" x2="99.5" y1="47.5" y2="47.41"/><path class="cls-1" d="M106.5,47.5l.06-3.87A12.07,12.07,0,0,0,95.15,31.4L89.21,35l-5.82-3.76A12.06,12.06,0,0,0,71.5,43.09l0,3.41"/><line class="cls-1" x1="99.5" x2="99.51" y1="50.5" y2="44.5"/><line class="cls-1" x1="77.5" x2="77.46" y1="50.5" y2="43.5"/><path class="cls-1" d="M63,60.53a15.87,15.87,0,0,1,5.93-3.77c.35-.13.7-.24,1.06-.34A15.95,15.95,0,0,1,90.12,70"/><line class="cls-1" x1="76.2" x2="76.4" y1="77.24" y2="77.96"/><line class="cls-1" x1="72.56" x2="72.77" y1="65.61" y2="66.37"/><path class="cls-1" d="M75.92,67.26a3.53,3.53,0,0,0-2.72-.63,3,3,0,0,0-2.46,2.27,2.58,2.58,0,0,0,.94,2.23c1.61,1.26,3.75-.55,5.58.7a2.81,2.81,0,0,1,1.25,2.33c-.07,1.36-1.48,2.25-2.37,2.57a4.31,4.31,0,0,1-3.58-.46"/><path class="cls-1" d="M27,19.57a11.32,11.32,0,1,1,22.63,0"/><line class="cls-1" x1="20.5" x2="20.5" y1="106.5" y2="93.5"/><path class="cls-1" d="M34,56.69a6.83,6.83,0,0,0,8.76,0"/><path class="cls-1" d="M42.79,45.72A2.92,2.92,0,0,1,44.68,45a3,3,0,0,1,2,.72"/><path class="cls-1" d="M33.78,45.72a2.92,2.92,0,0,0-1.9-.72,3,3,0,0,0-2,.72"/><path class="cls-2" d="M51,115.41a1.4,1.4,0,1,0,1.4,1.4A1.4,1.4,0,0,0,51,115.41Z"/><path class="cls-2" d="M39.2,80.26a1.4,1.4,0,1,0,1.4,1.4A1.4,1.4,0,0,0,39.2,80.26Z"/><path class="cls-2" d="M39.2,86.59A1.4,1.4,0,1,0,40.6,88,1.4,1.4,0,0,0,39.2,86.59Z"/><path class="cls-1" d="M42.39,38c3.9,0,3,.24,6.09-.18.45-1.57.89-3.13,1.36-4.69a23.41,23.41,0,0,1,4,13.35,20.28,20.28,0,0,1-3,10.7C48.23,61.38,43.21,65.8,38,66c-5.21-.21-10.24-4.63-12.86-8.81a20.18,20.18,0,0,1-3-10.7,23.41,23.41,0,0,1,4-13.35q.69,2.34,1.36,4.69a31.19,31.19,0,0,0,7.2.47l3.85-5.66Z"/><path class="cls-1" d="M22.85,53.11A21.57,21.57,0,0,1,38.33,16.85,21.39,21.39,0,0,1,59.6,38.37a23.25,23.25,0,0,1-6.72,15.71"/><polyline class="cls-1" points="111.5 96.5 111.5 119.5 57.5 119.5 57.5 83.5 110.5 83.5"/><polyline class="cls-1" points="58.02 83.68 69.84 95.5 123 95.5 110.5 83.5"/><path class="cls-1" d="M93.05,66.26c7.26-9.64,15.38-15.14,19.36-12.62,4.31,2.71,2.24,13.85-4.52,25.57"/><line class="cls-1" x1="104.53" x2="108.17" y1="61.85" y2="64.15"/><line class="cls-1" x1="99.71" x2="105.15" y1="67.49" y2="70.93"/><line class="cls-1" x1="95.34" x2="101.68" y1="73.42" y2="77.43"/><line class="cls-1" x1="87.5" x2="87.5" y1="96.5" y2="119.5"/><line class="cls-1" x1="94.5" x2="104.5" y1="103.5" y2="103.5"/><line class="cls-1" x1="94.5" x2="104.5" y1="109.5" y2="109.5"/><path class="cls-2" d="M92.15,75.37a1.59,1.59,0,1,0-1.1,2A1.59,1.59,0,0,0,92.15,75.37Z"/></svg>