<?xml version="1.0" ?><svg height="128" id="Icons" viewBox="0 0 128 128" width="128" xmlns="http://www.w3.org/2000/svg"><defs><style>.cls-1{fill:none;stroke:#383838;stroke-linecap:round;stroke-linejoin:round;stroke-width:3px;}.cls-2{fill:#383838;}</style></defs><title/><path class="cls-1" d="M49.08,51.11c-.62,2.66-5.56,5.78-5.77,5.92a.57.57,0,0,1-.28.08.6.6,0,0,1-.28-.08c-.21-.14-5.15-3.26-5.77-5.92A4,4,0,0,1,36.81,50a3.74,3.74,0,0,1,1.93-3.27,2.7,2.7,0,0,1,1.56-.28A4.79,4.79,0,0,1,43,47.68a4.85,4.85,0,0,1,2.75-1.26,2.63,2.63,0,0,1,1.54.28A3.74,3.74,0,0,1,49.25,50,4,4,0,0,1,49.08,51.11Z"/><path class="cls-1" d="M32.85,109.5H53.15a3.35,3.35,0,0,1,3.35,3.35v1.32a2.34,2.34,0,0,1-2.34,2.34H31.84a2.34,2.34,0,0,1-2.34-2.34v-1.32A3.35,3.35,0,0,1,32.85,109.5Z"/><path class="cls-1" d="M97.5,105.73v8.78a2,2,0,0,1-2,2H82.1a4.1,4.1,0,0,1,4.2-4h1.54a2.66,2.66,0,0,0,2.66-2.66v-.34"/><line class="cls-1" x1="101.5" x2="101.5" y1="103.5" y2="77.5"/><polyline class="cls-1" points="68.5 104 73.71 106.33 79.26 103.85 84.82 106.33 90.37 103.85 95.92 106.33 101.48 103.85"/><line class="cls-1" x1="68.5" x2="68.5" y1="77.5" y2="104"/><line class="cls-1" x1="116.5" x2="11.5" y1="116.5" y2="116.5"/><path class="cls-2" d="M25.65,122.55a1.45,1.45,0,1,0,1.45-1.45A1.45,1.45,0,0,0,25.65,122.55Z"/><line class="cls-1" x1="107.5" x2="32.5" y1="122.5" y2="122.5"/><path class="cls-1" d="M82.56,33.76c11.6,5.5,18.94,17.87,18.94,37.12V77.5h-33v-7"/><path class="cls-1" d="M76.5,116.5h-8a4,4,0,0,1,4-4h1.4a2.59,2.59,0,0,0,2.6-2.6"/><line class="cls-1" x1="79.5" x2="79.5" y1="86.5" y2="103.5"/><line class="cls-1" x1="84.5" x2="84.5" y1="93.5" y2="104.5"/><path class="cls-1" d="M79,46c6.86,14.55-1.28,12.82-4.84,19.26L73,67.33a4.34,4.34,0,0,0,1.7,5.91,4.28,4.28,0,0,0,2.5.52,4.34,4.34,0,0,0,3.4-2.22l1.16-2.11c4.85-8.75,12.72-7.91,6-25.09"/><line class="cls-1" x1="81.61" x2="74.44" y1="69.11" y2="64.88"/><circle class="cls-2" cx="107.27" cy="76" r="1.45"/><path class="cls-1" d="M107.27,71c0-15.23-4.28-27.3-12.31-35.32"/><path class="cls-1" d="M81.41,35.4c-1.48,4.05-4.85,6.38-8,6.38s-6.5-2.33-8-6.38a15.58,15.58,0,0,1-.57-9.56c1-3.25,2.39-1.29,7.46-4.2,5.68,3.92,9.4,2.49,9.94,5.56A16.5,16.5,0,0,1,81.41,35.4Z"/><line class="cls-1" x1="68.5" x2="68.5" y1="43.5" y2="72.5"/><path class="cls-1" d="M87.63,23.06a6.48,6.48,0,0,0-4.53-4.14c0-5.45-8-6.88-11.32-3.2A6,6,0,0,0,65,25.45c1-2.68,2.47-1,7.32-3.81,5.68,3.92,9.4,2.49,9.94,5.56a15.45,15.45,0,0,1-.22,5.85l.57,0C86.52,32.56,89.19,27.07,87.63,23.06Z"/><path class="cls-1" d="M83.1,18.92c.09,0,.28.07.52.15A6,6,0,1,0,73,14.75C76.67,12.38,83.1,14,83.1,18.92Z"/><path class="cls-1" d="M68.5,52.74S65,52.22,63,44.85,58.6,34.79,52.72,33.54a15,15,0,0,1-17.94,0C28.9,34.79,24.5,39.39,24.5,44.85V74a2.72,2.72,0,0,0,2.89,2.5H31.5v-6"/><path class="cls-1" d="M68,62.42s-13.08-4.25-13.08-14"/><path class="cls-1" d="M33.5,19.5v.59a4.87,4.87,0,0,0,0,.54c.23,6.19,4.61,11.12,10,11.12,4.67,0,9.32-4.82,9.51-11.17"/><line class="cls-1" x1="31.5" x2="31.5" y1="109.5" y2="70.5"/><line class="cls-1" x1="54.5" x2="54.5" y1="48.5" y2="109.5"/><line class="cls-1" x1="31.5" x2="31.5" y1="48.5" y2="71.5"/><line class="cls-1" x1="43.5" x2="43.5" y1="80.5" y2="111.5"/><line class="cls-1" x1="54.5" x2="24.5" y1="70.5" y2="70.5"/><line class="cls-1" x1="85.5" x2="101.5" y1="71.5" y2="71.5"/><path class="cls-1" d="M53.05,20l.77-2.5C56,8.62,48.35,4,43.66,4a10.12,10.12,0,0,0-7.5,3.74c-3.66.42-5.9,3.75-4.95,8.37l2.53,6.49"/><path class="cls-1" d="M42.19,18a29.26,29.26,0,0,1-6-3.49l-2.57,7.18"/><path class="cls-1" d="M41.66,13.48s3.52,2.34,6.06,3.73S53,20,53,20"/></svg>